<?xml version="1.0" encoding="utf-8"?>
<!-- Generator: Adobe Illustrator 16.0.0, SVG Export Plug-In . SVG Version: 6.00 Build 0)  -->
<!DOCTYPE svg PUBLIC "-//W3C//DTD SVG 1.1//EN" "http://www.w3.org/Graphics/SVG/1.1/DTD/svg11.dtd">
<svg version="1.1" xmlns="http://www.w3.org/2000/svg" xmlns:xlink="http://www.w3.org/1999/xlink" x="0px" y="0px"
	 width="183.958px" height="210.312px" viewBox="0 0 183.958 210.312" enable-background="new 0 0 183.958 210.312"
	 xml:space="preserve">
<g id="Layer_3" display="none">
	<path display="inline" fill="#724B24" d="M-348.938-58.294"/>
	<path display="inline" fill="#404041" d="M335.083-159.168c0,0,15.601,13.954,30.101,2.383c0,0-3.037,14.602-17.157,12.781
		C335.357-145.636,335.083-159.168,335.083-159.168z"/>
	<path display="inline" fill="#404041" d="M397.739-198.08c0,0,3.276-0.013,4.677-2.719c1.401-2.705-0.615-5.402-0.615-5.402
		s2.528-1.954,3.026-3.921c0.902-3.554-1.692-5.218-1.692-5.218s2.521-2.464,2.064-5.918c-0.454-3.457-3.981-5.394-3.981-5.394
		s2.119-4.266,0.719-7.339c-1.398-3.069-5.934-3.809-5.934-3.809s0.82-4.101-1.11-6.646c-1.933-2.547-6.157-2.923-6.157-2.923
		s0.539-3.801-1.876-5.957c-2.412-2.158-5.773-1.691-5.773-1.691s-0.533-4.48-3.651-6.416c-3.123-1.935-7.765,0.654-7.765,0.654
		s-1.002-3.37-3.177-4.493c-2.178-1.122-4.998,0.603-4.998,0.603s-1.884-3.118-4.545-3.97c-2.663-0.851-6.204,1.753-6.204,1.753
		s-2.521-2.913-5.051-2.311c-2.529,0.595-4.385,4.116-4.385,4.116s-1.844-3.415-5.389-2.649c-3.543,0.767-4.824,5.074-4.824,5.074
		s-1.559-3.629-5.443-2.967c-3.877,0.663-5.346,4.671-5.346,4.671s-1.354-2.651-5.307-1.936c-3.955,0.715-7.244,7.315-7.244,7.315
		s-3.053-0.954-6.617,0.816c-3.424,1.698-3.638,5.726-3.946,8.67c0,0-4.261-0.818-7.228,1.365c-2.969,2.187-3.267,8.516-3.267,8.516
		s-3.406,0.742-4.73,3.212c-1.322,2.472-1.476,7.22-1.476,7.22s-2.805,0.521-3.88,3.98c-1.075,3.46,0.833,6.387,0.833,6.387
		s-3.747,0.874-4.46,4.483c-0.717,3.61,2.252,6.787,2.252,6.787s-3.898,3.077-2.887,8.448c1.009,5.371,4.522,5.958,4.522,5.958
		s-2.422,5.957,0.409,9.581c2.83,3.623,6.239,3.909,6.239,3.909s-1.48,4.953,2.658,8.276c4.539,3.649,11.902,0.354,11.902,0.354
		s19.178,2.576,20.716,2.519c1.545-0.057,31.956-8.48,31.956-8.48l40.743-16.498c0,0,3.423,1.175,6.199-2.467
		C399.647-195.088,397.739-198.08,397.739-198.08z"/>
	<polygon display="inline" fill="#B29B8D" points="341.735,-139.355 340.816,-124.812 353.883,-124.064 353.444,-139.272 	"/>
	<path display="inline" opacity="0.1" fill="#404041" d="M353.444-139.272l-11.709-0.083l-0.348,5.522
		c1.313,0.32,3.268,0.739,5.009,0.863c2.688,0.195,4.33,0.225,7.223-0.254L353.444-139.272z"/>
	<path display="inline" fill="#B29B8D" d="M392.496-190.018c0.429,32.365-18.688,57.27-52.747,53.155
		c-25.215-3.05-40.079-22.883-40.407-48.979c-0.04-3.228-2.363-32.087,5.045-35.748c24.032-11.878,72.849-4.654,72.849-4.654
		S392.181-214.076,392.496-190.018z"/>
	<path display="inline" fill="#F4C9A2" d="M169.16-65.106c25.187-14.109,26.551-12.864,28.626-12.636
		c2.076,0.228,11.979,2.275,11.979,2.275l2.238-11.359c0,0-10.432-2.392-12.727-2.73c-2.293-0.338-8.455-1.249-35.269,14.868
		L169.16-65.106z"/>
	<path display="inline" fill="#8E6464" d="M224.035-88.319c0,0-18.833-2.971-20.234-0.728c-3.564,13.304,0.119,25.657,0.119,25.657
		s11.418,1.09,17.333,1.531c5.917,0.434,19.135,6.331,26.004-2.406c5.413-6.889,2.04-24.054,2.04-24.054H224.035z"/>
	<path display="inline" fill="#989899" d="M139.986-92.918c0,0-2.425,1.264-2.706,1.967c-0.279,0.704-2.237,5.894,5.364,17.504
		c7.604,11.609,14.79,18.426,21.648,15.596c1.729-1.097-13.186-21.293-13.186-21.293L139.986-92.918z"/>
	<path display="inline" fill="#ADA18C" d="M165.13-75.343c0.836,4.883,2.528,7.333,6.342,8.93c0,0-0.984,4.847-6.157,8.074
		c-6.146,3.674-12.9-3.507-20.061-13.63c-5.702-8.064-8.432-17.396-7.046-19.364c3.007-4.263,13.555-4.154,16.756-0.08
		C158.572-86.824,159.436-76.199,165.13-75.343z"/>
	<path display="inline" fill="#FED7AF" d="M167.119-59.346c25.188-14.112,26.55-12.867,28.625-12.638
		c2.078,0.227,11.979,2.277,11.979,2.277l2.239-11.36c0,0-10.431-2.392-12.727-2.731c-2.293-0.338-8.456-1.248-35.269,14.866
		L167.119-59.346z"/>
	<path display="inline" fill="#B07775" d="M224.932-83.653c0,0-23.2-2.97-24.925-0.728c-4.391,13.302,0.145,25.652,0.145,25.652
		s14.067,1.096,21.357,1.532c7.287,0.436,23.568,6.333,32.031-2.406c6.67-6.887,3.354-24.378,3.354-24.378L224.932-83.653z"/>
	<g display="inline">
		<path fill="#A6A8AB" d="M138.091-87.233c0,0-2.425,1.264-2.706,1.967c-0.28,0.705-2.238,5.894,5.365,17.502
			c7.603,11.607,14.788,18.426,21.646,15.598c1.73-1.096-13.184-21.292-13.184-21.292L138.091-87.233z"/>
		<path fill="#C1B49A" d="M163.236-69.658c0.838,4.882,2.528,7.332,6.34,8.926c0,0-0.983,4.846-6.156,8.077
			c-6.145,3.671-12.9-3.506-20.06-13.63c-5.703-8.062-8.432-17.396-7.046-19.363c3.005-4.264,13.554-4.155,16.754-0.081
			C156.676-81.139,157.539-70.511,163.236-69.658z"/>
	</g>
	<g display="inline">
		
			<rect x="174.177" y="-85.964" transform="matrix(0.988 0.1546 -0.1546 0.988 -10.6956 -31.4895)" fill="#929497" width="45.737" height="2.95"/>
		<polygon fill="#A6A8AB" points="174.681,-89.483 186.044,-97.922 214.923,-94.744 219.867,-82.409 		"/>
		<polygon fill="#BBBDBF" points="186.044,-97.922 174.681,-89.483 141.169,-124.138 157.603,-126.818 		"/>
		<polygon fill="#929497" points="174.681,-89.483 174.224,-86.569 140.831,-122.297 141.169,-124.138 		"/>
	</g>
	<polygon display="inline" fill="#808184" points="206.71,-86.427 179.741,-90.364 187.535,-96.552 205.896,-94.374 	"/>
	<path display="inline" fill="#F4C9A2" d="M230.289-109.565l-4.245-6.528c0,0-4.19,6.431-23.771,14.325
		c-0.936-0.1-1.815-0.165-2.492-0.21c-3.225-0.22-7.238,0.333-10.644,4.148c-2.615,2.93-3.022,4.942-1.294,5.833
		c1.729,0.887,2.952-1.025,6.495-1.423c3.105-0.347,4.757,0.562,8.07-0.245c0.968-0.232,1.959-0.74,2.858-1.37
		C227.208-102.001,230.289-109.565,230.289-109.565z"/>
	<path display="inline" fill="#FDD6AE" d="M206.894-97.126c-0.952-1.571-5.958-2.302-8.388-2.628
		c-3.202-0.434-7.243-0.146-10.895,3.432c-2.807,2.75-3.343,4.731-1.68,5.732c1.666,1.002,3.013-0.826,6.575-0.985
		c3.123-0.14,4.602,0.489,7.962-0.095S207.842-95.555,206.894-97.126z"/>
	<path display="inline" fill="#F3C8A1" d="M186.261-90.481c0.942-1.953,4.882-4.641,7.153-3.986
		c1.058,0.544-1.606,0.637-2.832,1.124C189.354-92.85,187.977-92.174,186.261-90.481z"/>
	<path display="inline" fill="#F3C8A1" d="M185.035-91.938c0.825-2.006,4.599-4.923,6.906-4.402c1.088,0.481-1.567,0.73-2.76,1.292
		C187.982-94.487,186.645-93.73,185.035-91.938z"/>
	<path display="inline" fill="#FDD6AE" d="M238.451-121.165c0,0-12.35,14.886-36.999,21.929l0.839,6.812
		c22.552-5.409,40.209-20.857,40.209-20.857L238.451-121.165z"/>
	<polygon display="inline" fill="#FED7AF" points="223.215,-139.733 227.425,-125.655 240.042,-129.507 234.321,-143.742 	"/>
	<path display="inline" fill="#F4C9A2" d="M237.062-136.903l-2.741-6.839l-11.106,4.009l2.006,6.712
		c1.763-0.117,4.13-0.641,6.153-1.273C233.708-135.023,236.068-136.262,237.062-136.903z"/>
	<path display="inline" fill="#2A7ABC" d="M212.358-111.108c10.349-10.205,9.626-20.193,18.601-16.285
		c8.975,3.907-2.315,24.463-6.079,26.489C221.84-101.482,212.72-102.785,212.358-111.108z"/>
	<path display="inline" fill="#FED7AF" d="M162.412-196.943c-4.321,12.221,4.468,29.584,5.564,32.889
		c1.096,3.3-3.317,6.112-2.81,8.537c0.993,4.751,7.204,3.781,8.885,5.826c1.682,2.046,20.397,19.073,44.927,15.095
		c30.758-4.988,38.708-31.4,38.708-31.4l-22.122-55.941l-31.976-15.748l-32.723,21.433
		C170.864-216.253,166.735-209.167,162.412-196.943z"/>
	<path display="inline" fill="#AA9651" d="M228.188-246.904c0,0-19.995-9.743-40.545,1.084
		c-27.334,14.404-28.837,34.031-39.877,29.701c0.815,4.686,2.849,6.279,2.849,6.279s-2.614,1.729-7.053-3.498
		c1.477,10.127,6.792,13.469,7.432,13.699c0.642,0.228-2.083,2.031-6.043,0.243c3.29,9.906,16.352,8.176,16.352,8.176
		s6.621-10.476,13.436-14.986c-1.332,2.676-0.583,4.303-0.583,4.303s6.521-6.271,13.514-8.452c-2.562,2.295-4.49,6.292-4.49,6.292
		s8.733-5.691,17.679-4.719c8.943,0.97,13.01,12.323,13.36,17.656c0.295,4.499-0.45,6.127-0.45,6.127s7.884,1.446,14.39,2.639
		c2.658,0.486,1.8,2.865,5.171,3.097c5.977,2.625,11.516,25.948,10.281,33.295c25.445-20.031,25.445-49.805,17.325-70.378
		c-6.684-16.932-22.15-25.652-22.15-25.652s1.745-2.296,6.313-2.055c-6.973-3.386-11.63-0.795-11.63-0.795s-2.075-6.221-8.885-8
		C226.669-250.309,228.188-246.904,228.188-246.904z"/>
	<path display="inline" fill="#FED7AF" d="M218.727-178.246c0,0-0.397-14.674,6.324-17.995c6.084-3.009,12.186,0.196,13.741,5.812
		c1.655,5.971-2.091,10.47-5.932,13.995c-5.316,4.879-5.213,3.617-12.946,11.475l-1.758-7.319L218.727-178.246z"/>
	<path display="inline" fill="#FFFFFF" d="M196.136-143.544c0.533,3.607,3.861,4.848,7.805,3.818c2.754-0.72,5.65-2.1,8.573-5.777
		c1.848-2.327,3.062-6.72,1.562-9.859c-1.428-2.994-4.341-5.373-7.888-1.685c-2.049,2.128-2.103,4.402-4.143,6.598
		C200.008-148.25,195.605-147.151,196.136-143.544z"/>
	<path display="inline" fill="#AA9651" d="M180.055-190.349c-1.783-1.348-6.703-2.159-10.601,0.688
		c-2.368,1.73-3.353,4.108-3.446,4.867c-0.176,1.215,1.511,2.146,1.942,1.064c0.335-0.767,0.697-2.339,3.256-4.326
		C174.87-190.899,178.344-190.45,180.055-190.349z"/>
	<path display="inline" fill="#A0C8F9" d="M226.494-128.805c7.366,1.094,12.149-4.195,12.149-4.195s15.532,11.834,19.38,49.202
		c-11.079,9.327-32.62,3.921-34.221,1.675c-4.209-5.904-0.253-23.25,0.766-30.721c0.078-0.57-3.754-7.447-3.462-7.908
		C224.333-125.835,225.878-128.15,226.494-128.805z"/>
	<path display="inline" fill="#4089E2" d="M211.776-108.12c10.83-10.679,10.073-21.132,19.465-17.041
		c9.389,4.089-2.425,25.598-6.364,27.721C221.697-98.049,212.155-99.412,211.776-108.12z"/>
	<path display="inline" fill="#F4C9A2" d="M223.839-188.68c0,0,2.783-4.601,7.141-3.789c5.393,1.004,4.302,7.87,4.302,7.87
		C233.103-195.615,223.839-188.68,223.839-188.68z"/>
	
		<ellipse transform="matrix(0.822 -0.5694 0.5694 0.822 132.6815 69.6264)" display="inline" fill="#FFFFFF" cx="177.734" cy="-177.459" rx="5.424" ry="7.071"/>
	<path display="inline" fill="#404041" d="M179.886-176.721c1.295,1.222,1.589,3.017,0.654,4.011
		c-0.938,0.997-2.749,0.814-4.048-0.406c-1.294-1.221-1.587-3.019-0.651-4.013C176.778-178.124,178.587-177.941,179.886-176.721z"/>
	<path display="inline" opacity="0.1" fill="#404041" d="M300.451-182.344c0,0,4.676-0.488,6.183-3.419
		c1.511-2.934,0.504-5.366,0.504-5.366s3.876-0.268,5.453-2.907c1.581-2.635,1.549-6.551,1.549-6.551s3.095-0.019,5.038-2.697
		c1.943-2.677,1.081-5.955,1.081-5.955s2.193,1.231,4.271-0.302c2.08-1.532,1.89-4.435,1.89-4.435s1.034,2.312,3.396,3.269
		c2.949,1.197,4.78-0.942,4.78-0.942s0.721,2.489,2.891,3.646c2.174,1.159,5.095-0.313,5.095-0.313s-0.027,2.658,3.648,3.773
		c3.359,1.02,4.967-0.378,4.967-0.378s0.967,1.92,3.436,2.683c2.469,0.761,5.24-1.394,5.24-1.394s1.369,2.919,4.812,3.144
		c3.445,0.229,5.657-2.13,5.657-2.13s2.468,3.042,5.047,2.705c2.58-0.34,3.823-3.023,3.823-3.023s1.562,2.268,3.811,1.911
		c2.244-0.358,3.243-2.498,3.243-2.498s1.107,2.008,3.654,2.264c3.422,0.344,5.141-4.987,5.141-4.987s-3.415-13.709-7.224-15.534
		c-3.808-1.823-14.718-6.452-18.237-7.443c-3.517-0.992-11.915-2.343-13.561-2.892c-1.645-0.546-41.357-6.372-41.743-5.339
		c-0.385,1.032-14.874,10.124-15.663,12.538c-0.787,2.414-2.343,13.549-2.987,19.823
		C295.002-198.817,300.451-182.344,300.451-182.344z"/>
	<path display="inline" fill="#B29B8D" d="M408.16-144.487c0,0,1.551-1.65,1.757-3.267c0.295-2.333-6.053-4.939-4.106-6.911
		c1.946-1.97,4.629,3.207,6.329,2.728c1.588-0.448,1.474-8.841,3.388-8.755c3.156,0.136-0.785,8.89,1.208,9.581
		c1.999,0.687,6.232-8.548,8.571-6.332c1.954,1.849-5.815,7.308-4.694,9.026c1.28,1.755,8.539-3.203,9.304-0.649
		c0.764,2.555-7.377,3.23-7.607,4.398c-0.41,2.13,6.204,2.207,5.404,4.253c-0.714,1.819-3.779-0.258-7.278-0.841
		c-2.744-0.46-4.922,1.329-5.628,1.914C412.864-139.952,408.16-144.487,408.16-144.487z"/>
	<path display="inline" fill="#B29B8D" d="M289.191-146.299c0,0-1.82-1.534-2.061-3.147c-0.342-2.327,5.951-5.061,3.966-6.992
		c-1.983-1.93-4.564,3.301-6.271,2.855c-1.595-0.416-1.652-8.81-3.566-8.686c-3.152,0.202,0.966,8.873-1.014,9.604
		c-1.983,0.729-6.404-8.42-8.698-6.157c-1.913,1.889,5.962,7.191,4.878,8.932c-1.244,1.78-8.603-3.032-9.316-0.462
		c-0.709,2.569,7.878,2.681,7.694,4.243c-0.28,2.317-5.73,0.77-5.567,3.045c0.119,1.668,4.663,0.321,7.521,0.06
		c2.862-0.264,4.802,0.666,5.882,1.741C284.569-141.914,289.191-146.299,289.191-146.299z"/>
	<path display="inline" fill="#208AAF" d="M311.562-73.603c-2.495,12.36,17.695,20.454,23.223,16.276
		c2.076-2.501,15.74-21.908,15.74-21.908S320.851-86.496,311.562-73.603z"/>
	<path display="inline" fill="#B29B8D" d="M313.427-45.677c18.733-21.65,26.68-24.83,26.68-24.83l-6.454-8.18
		c0,0-8.69,1.737-28.264,25.809L313.427-45.677z"/>
	<path display="inline" fill="#208AAF" d="M383.574-60.482c6.208-2.622,8.671-23.127,6.432-26.168
		c-5.99-1.782-12.629,1.146-12.629,1.146S379.501-66.492,383.574-60.482z"/>
	<path display="inline" fill="#B29B8D" d="M407.129-59.309c-13.1-6.492-36.178-11.779-36.178-11.779l2.668-10.074
		c0,0,18.271,2.283,37.45,12.494L407.129-59.309z"/>
	<path display="inline" fill="#26A9E0" d="M327.482-85.262c0,0-11.518,3.914-15.92,11.659c4.983-7.098,29.447,4.533,23.223,16.276
		c15.837-9.999,39.809-6.352,48.789-3.155c-3.028-9.053,3.114-24.922,6.432-26.168c-12.433-3.223-20.197,0.848-20.197,0.848
		l-13.347-5.948L327.482-85.262z"/>
	<polygon display="inline" fill="#B29B8D" points="341.735,-139.355 340.816,-124.812 353.883,-124.064 353.444,-139.272 	"/>
	<path display="inline" opacity="0.1" fill="#404041" d="M353.444-139.272l-11.709-0.083l-0.329,4.999
		c1.438,0.938,3.823,1.542,5.562,1.688c1.875,0.156,4.562-0.125,6.625-1.156L353.444-139.272z"/>
	<path display="inline" fill="#404041" d="M335.083-159.168c0,0,15.601,13.954,30.101,2.383c0,0-3.037,14.602-17.157,12.781
		C335.357-145.636,335.083-159.168,335.083-159.168z"/>
	<path display="inline" fill="#E2CE6A" d="M317.257-132.903c0,0-5.161,6.533-2.361,14.284c4.68,0.882,4.812-7.464,4.812-7.464
		L317.257-132.903z"/>
	<path display="inline" fill="#B29B8D" d="M373.391-126.029c8.388-2.98,19.842-5.163,19.842-5.163s8.353-6.251,14.949-13.315
		l6.625,5.166c-7.598,8.831-15.594,15.587-17.554,16.439c-2.554,1.11-7.975,3.262-21.705,5.719L373.391-126.029z"/>
	<path display="inline" fill="#404041" d="M397.739-198.08c0,0,3.276-0.013,4.677-2.719c1.401-2.705-0.615-5.402-0.615-5.402
		s2.528-1.954,3.026-3.921c0.902-3.554-1.692-5.218-1.692-5.218s2.521-2.464,2.064-5.918c-0.454-3.457-3.981-5.394-3.981-5.394
		s2.119-4.266,0.719-7.339c-1.398-3.069-5.934-3.809-5.934-3.809s0.82-4.101-1.11-6.646c-1.933-2.547-6.157-2.923-6.157-2.923
		s0.539-3.801-1.876-5.957c-2.412-2.158-5.773-1.691-5.773-1.691s-0.533-4.48-3.651-6.416c-3.123-1.935-7.765,0.654-7.765,0.654
		s-1.002-3.37-3.177-4.493c-2.178-1.122-4.998,0.603-4.998,0.603s-1.884-3.118-4.545-3.97c-2.663-0.851-6.204,1.753-6.204,1.753
		s-2.521-2.913-5.051-2.311c-2.529,0.595-4.385,4.116-4.385,4.116s-1.844-3.415-5.389-2.649c-3.543,0.767-4.824,5.074-4.824,5.074
		s-1.559-3.629-5.443-2.967c-3.877,0.663-5.346,4.671-5.346,4.671s-1.354-2.651-5.307-1.936c-3.955,0.715-7.244,7.315-7.244,7.315
		s-3.053-0.954-6.617,0.816c-3.424,1.698-3.638,5.726-3.946,8.67c0,0-4.261-0.818-7.228,1.365c-2.969,2.187-3.267,8.516-3.267,8.516
		s-3.406,0.742-4.73,3.212c-1.322,2.472-1.476,7.22-1.476,7.22s-2.805,0.521-3.88,3.98c-1.075,3.46,0.833,6.387,0.833,6.387
		s-3.747,0.874-4.46,4.483c-0.717,3.61,2.252,6.787,2.252,6.787s-3.898,3.077-2.887,8.448c1.009,5.371,4.522,5.958,4.522,5.958
		s-2.422,5.957,0.409,9.581c2.83,3.623,6.239,3.909,6.239,3.909s-1.48,4.953,2.658,8.276c4.539,3.649,11.902,0.354,11.902,0.354
		s19.178,2.576,20.716,2.519c1.545-0.057,31.956-8.48,31.956-8.48l40.743-16.498c0,0,3.423,1.175,6.199-2.467
		C399.647-195.088,397.739-198.08,397.739-198.08z"/>
	<path display="inline" fill="#B29B8D" d="M392.496-190.018c-1.658,35.682-23.684,57.781-52.747,53.155
		c-25.08-3.992-40.079-22.883-40.407-48.979c-0.04-3.228-2.363-32.087,5.045-35.748c24.032-11.878,72.849-4.654,72.849-4.654
		S394.16-225.7,392.496-190.018z"/>
	<g display="inline">
		<circle fill="#FFFFFF" cx="328.887" cy="-179.421" r="7.014"/>
		<path fill="#404041" d="M333.957-179.784c-0.088,1.764-1.59,3.124-3.354,3.036c-1.763-0.087-3.124-1.588-3.04-3.354
			c0.088-1.766,1.593-3.125,3.355-3.038C332.684-183.051,334.044-181.55,333.957-179.784z"/>
	</g>
	<g display="inline">
		<circle fill="#FFFFFF" cx="375.47" cy="-183.368" r="7.013"/>
		<circle fill="#404041" cx="377.344" cy="-183.89" r="3.201"/>
	</g>
	<path display="inline" fill="#404041" d="M299.488-183.661c0,0,4.668,0.348,6.195-2.622c1.534-2.971,0.41-5.926,0.41-5.926
		s4.095-0.624,5.693-3.296c1.601-2.67,1.569-6.636,1.569-6.636s3.134-0.021,5.104-2.734c1.967-2.713,0.792-5.769,0.792-5.769
		s2.523,0.985,4.63-0.568c2.106-1.552,2.11-5.034,2.11-5.034s1.471,3.038,3.863,4.009c2.989,1.212,5.146-1.343,5.146-1.343
		s0.61,2.978,2.81,4.151c2.201,1.174,5.639-0.894,5.639-0.894s-0.68,3.266,3.04,4.393c3.407,1.035,4.992-0.697,4.992-0.697
		s0.896,2.11,3.396,2.883c2.503,0.771,5.257-1.672,5.257-1.672s1.251,3.261,4.736,3.49c3.491,0.232,5.42-2.275,5.42-2.275
		s2.501,3.083,5.111,2.739c2.613-0.345,3.875-3.062,3.875-3.062s1.582,2.297,3.857,1.936c2.275-0.363,3.286-2.529,3.286-2.529
		s1.123,2.035,3.703,2.292c3.464,0.349,5.206-5.052,5.206-5.052s-3.458-13.888-7.317-15.737c-3.856-1.846-14.91-6.534-18.474-7.539
		c-3.563-1.004-12.071-2.373-13.738-2.931c-1.666-0.552-41.896-6.454-42.286-5.408c-0.394,1.045-15.07,10.257-15.866,12.7
		c-0.8,2.446-2.375,13.726-3.029,20.082C293.967-200.35,299.488-183.661,299.488-183.661z"/>
	<path display="inline" fill="#B29B8D" d="M306.458-182.521c0,0-8.241-9.073-14.751-3.158c-6.51,5.917-1.371,15.545,2.785,19.131
		c7.032,6.069,16.022,1.907,16.022,1.907L306.458-182.521z"/>
	<path display="inline" fill="#404041" d="M366.281-192.884c0,0,0.044-0.314,0.242-0.827c0.202-0.506,0.57-1.217,1.191-1.944
		c0.309-0.363,0.667-0.754,1.102-1.094c0.424-0.355,0.91-0.695,1.449-0.975c0.528-0.301,1.113-0.545,1.72-0.738
		c0.625-0.21,1.203-0.324,1.918-0.436l0.871-0.083c0.331-0.014,0.67-0.014,1.003-0.007c0.644,0.026,1.257,0.104,1.85,0.231
		c1.18,0.258,2.225,0.706,3.021,1.225c0.813,0.493,1.386,1.052,1.742,1.463c0.36,0.418,0.503,0.699,0.503,0.699
		s-1.193-0.396-2.831-0.691c-0.831-0.13-1.765-0.253-2.762-0.284c-0.491-0.023-1.011-0.01-1.514,0.005
		c-0.245,0.023-0.484,0.034-0.737,0.045l-0.871,0.091c-0.438,0.071-1.015,0.148-1.498,0.264c-0.5,0.101-0.99,0.235-1.457,0.388
		c-0.938,0.3-1.797,0.681-2.529,1.065C367.243-193.697,366.281-192.884,366.281-192.884z"/>
	<path display="inline" fill="#404041" d="M316.841-187.597c0,0-0.015-0.329,0.11-0.888c0.118-0.554,0.377-1.348,0.895-2.198
		c0.256-0.427,0.56-0.888,0.944-1.312c0.382-0.438,0.822-0.867,1.332-1.247c0.486-0.4,1.052-0.746,1.646-1.048
		c0.605-0.322,1.182-0.536,1.897-0.769l0.881-0.232c0.338-0.07,0.689-0.126,1.031-0.176c0.668-0.081,1.31-0.106,1.941-0.074
		c1.256,0.068,2.406,0.352,3.314,0.752c0.916,0.371,1.598,0.847,2.033,1.211c0.439,0.367,0.638,0.634,0.638,0.634
		s-1.294-0.208-3.031-0.235c-0.874,0.005-1.854,0.038-2.884,0.172c-0.512,0.059-1.041,0.162-1.557,0.262
		c-0.249,0.063-0.494,0.115-0.753,0.167l-0.877,0.243c-0.438,0.144-1.024,0.321-1.499,0.522c-0.498,0.191-0.979,0.407-1.431,0.644
		c-0.915,0.466-1.733,1.002-2.421,1.523C317.688-188.595,316.841-187.597,316.841-187.597z"/>
	<path display="inline" opacity="0.3" fill="#404041" d="M301.316-180.992c0,0-6.847-1.787-8.244,2.629
		c-1.4,4.416,4.572,8.962,4.572,8.962s-2.128-3.554-1.664-6.634C296.508-179.549,301.316-180.992,301.316-180.992z"/>
	<path display="inline" fill="#FFFFFF" d="M337.445-156.21c3.884-3.406,7.229,0.592,13.2,1.594c5.967,1,8.484-1.536,11.304,1.302
		c3.222,3.288-1.945,11.675-14.074,9.952C337.261-144.87,333.559-152.805,337.445-156.21z"/>
	<path display="inline" opacity="0.5" fill="#208AAF" d="M369.809-85.802c0,0-4.392,1.771-6.691,4.367
		c0.423-4.174,2.26-6.183,2.26-6.183L369.809-85.802z"/>
	<path display="inline" fill="#6D6E70" d="M314.09-32.762c0,0,1.994-3.075,2.028-7.425c0.023-2.207-3.801-6.485-6.758-12.495
		c-4.062-8.244-9.244-15.004-17.452-15.845c-10.679-1.093-16.034,6.662-16.034,6.662S295.218-53.285,314.09-32.762z"/>
	<path display="inline" fill="#404041" d="M275.874-61.865c2.513-3.453,11.312-3.739,17.486,3.472
		c9.578,11.185,22.354,22.095,20.729,25.631c-0.658,1.436-3.484,3.844-9.638,0.243c-6.153-3.594-4.629-3.991-8.572-6.72
		C291.944-41.959,269.401-52.98,275.874-61.865z"/>
	<path display="inline" fill="#6D6E70" d="M407.829-48.218c0,0-2.241-2.338-3.972-6.332c-1.303-2.995,0.411-6.911,2.538-13.262
		c3.566-10.679,8.937-16.632,16.797-19.141c10.225-3.266,16.054,2.396,16.054,2.396S422.077-72.186,407.829-48.218z"/>
	<path display="inline" fill="#404041" d="M439.246-84.557c-3.144-2.891-11.697,2.079-16.256,10.403
		c-7.07,12.916-16.72,21.966-15.161,25.936c0.578,1.471,3.926,2.546,9.212-2.239c5.283-4.788,3.979-4.364,7.276-7.841
		C427.611-61.771,445.271-79.021,439.246-84.557z"/>
	<path display="inline" opacity="0.1" fill="#404041" d="M303.628-131.859c0.706-0.576,2.22-0.987,2.22-0.987l-1.022-0.191"/>
	<path display="inline" fill="#208AAF" d="M311.562-73.603c-2.495,12.36,17.695,20.454,23.223,16.276
		c2.076-2.501,15.74-21.908,15.74-21.908S320.851-86.496,311.562-73.603z"/>
	<path display="inline" fill="#B29B8D" d="M313.427-45.677c18.733-21.65,26.68-24.83,26.68-24.83l-6.454-8.18
		c0,0-8.69,1.737-28.264,25.809L313.427-45.677z"/>
	<path display="inline" fill="#208AAF" d="M383.574-60.482c6.208-2.622,8.671-23.127,6.432-26.168
		c-5.99-1.782-12.629,1.146-12.629,1.146S379.501-66.492,383.574-60.482z"/>
	<path display="inline" fill="#B29B8D" d="M407.129-59.309c-13.1-6.492-36.178-11.779-36.178-11.779l2.668-10.074
		c0,0,18.271,2.283,37.45,12.494L407.129-59.309z"/>
	<path display="inline" fill="#26A9E0" d="M327.482-85.262c0,0-11.518,3.914-15.92,11.659c4.983-7.098,29.447,4.533,23.223,16.276
		c15.837-9.999,39.809-6.352,48.789-3.155c-3.028-9.053,3.114-24.922,6.432-26.168c-12.433-3.223-20.197,0.848-20.197,0.848
		l-13.347-5.948L327.482-85.262z"/>
	<path display="inline" fill="#E2CE6A" d="M317.257-132.903c-3.257-0.579-6.132,11.671-2.361,14.284
		c4.68,0.882,4.812-7.464,4.812-7.464S319.076-132.512,317.257-132.903z"/>
	<path display="inline" fill="#B29B8D" d="M324.287-128.254c-8.87-2.642-20.2-5.072-20.2-5.072s-8.159-6.043-14.896-12.973
		l-6.569,5.024c6.856,7.771,15.383,14.918,17.041,15.768c2.577,1.324,10.882,4.002,22.776,6.125L324.287-128.254z"/>
	<g display="inline">
		<circle fill="#FFFFFF" cx="328.887" cy="-179.421" r="7.014"/>
		<path fill="#404041" d="M333.957-179.784c-0.088,1.764-1.59,3.124-3.354,3.036c-1.763-0.087-3.124-1.588-3.04-3.354
			c0.088-1.766,1.593-3.125,3.355-3.038C332.684-183.051,334.044-181.55,333.957-179.784z"/>
	</g>
	<g display="inline">
		<circle fill="#FFFFFF" cx="375.47" cy="-183.368" r="7.013"/>
		<circle fill="#404041" cx="377.344" cy="-183.89" r="3.201"/>
	</g>
	<path display="inline" fill="#404041" d="M299.488-183.661c0,0,4.668,0.348,6.195-2.622c1.534-2.971,0.41-5.926,0.41-5.926
		s4.095-0.624,5.693-3.296c1.601-2.67,1.569-6.636,1.569-6.636s3.134-0.021,5.104-2.734c1.967-2.713,0.792-5.769,0.792-5.769
		s2.523,0.985,4.63-0.568c2.106-1.552,2.11-5.034,2.11-5.034s1.471,3.038,3.863,4.009c2.989,1.212,5.146-1.343,5.146-1.343
		s0.61,2.978,2.81,4.151c2.201,1.174,5.639-0.894,5.639-0.894s-0.68,3.266,3.04,4.393c3.407,1.035,4.992-0.697,4.992-0.697
		s0.896,2.11,3.396,2.883c2.503,0.771,5.257-1.672,5.257-1.672s1.251,3.261,4.736,3.49c3.491,0.232,5.42-2.275,5.42-2.275
		s2.501,3.083,5.111,2.739c2.613-0.345,3.875-3.062,3.875-3.062s1.582,2.297,3.857,1.936c2.275-0.363,3.286-2.529,3.286-2.529
		s1.123,2.035,3.703,2.292c3.464,0.349,5.206-5.052,5.206-5.052s-3.458-13.888-7.317-15.737c-3.856-1.846-14.91-6.534-18.474-7.539
		c-3.563-1.004-12.071-2.373-13.738-2.931c-1.666-0.552-41.896-6.454-42.286-5.408c-0.394,1.045-15.07,10.257-15.866,12.7
		c-0.8,2.446-2.375,13.726-3.029,20.082C293.967-200.35,299.488-183.661,299.488-183.661z"/>
	<path display="inline" fill="#FFFFFF" d="M337.445-156.21c3.884-3.406,7.229,0.592,13.2,1.594c5.967,1,8.484-1.536,11.304,1.302
		c3.222,3.288-1.945,11.675-14.074,9.952C337.261-144.87,333.559-152.805,337.445-156.21z"/>
	<path display="inline" opacity="0.5" fill="#208AAF" d="M369.809-85.802c0,0-4.392,1.771-6.691,4.367
		c0.423-4.174,2.26-6.183,2.26-6.183L369.809-85.802z"/>
	<path display="inline" fill="#6D6E70" d="M314.09-32.762c0,0,1.994-3.075,2.028-7.425c0.023-2.207-3.801-6.485-6.758-12.495
		c-4.062-8.244-9.244-15.004-17.452-15.845c-10.679-1.093-16.034,6.662-16.034,6.662S295.218-53.285,314.09-32.762z"/>
	<path display="inline" fill="#404041" d="M275.874-61.865c2.513-3.453,11.312-3.739,17.486,3.472
		c9.578,11.185,22.354,22.095,20.729,25.631c-0.658,1.436-3.484,3.844-9.638,0.243c-6.153-3.594-4.629-3.991-8.572-6.72
		C291.944-41.959,269.401-52.98,275.874-61.865z"/>
	<path display="inline" fill="#6D6E70" d="M407.829-48.218c0,0-2.241-2.338-3.972-6.332c-1.303-2.995,0.411-6.911,2.538-13.262
		c3.566-10.679,8.937-16.632,16.797-19.141c10.225-3.266,16.054,2.396,16.054,2.396S422.077-72.186,407.829-48.218z"/>
	<path display="inline" fill="#404041" d="M439.246-84.557c-3.144-2.891-11.697,2.079-16.256,10.403
		c-7.07,12.916-16.72,21.966-15.161,25.936c0.578,1.471,3.926,2.546,9.212-2.239c5.283-4.788,3.979-4.364,7.276-7.841
		C427.611-61.771,445.271-79.021,439.246-84.557z"/>
	<path display="inline" opacity="0.1" fill="#404041" d="M392.545-131.03c0,0,0.026,0.59,0.334,1.125
		c0.329-0.729,1.594-2.206,1.594-2.206l-1.24,0.919L392.545-131.03z"/>
	<path display="inline" opacity="0.1" fill="#404041" d="M303.47-133.771c0,0-0.491,0.779-0.602,1.653
		c0.708-0.574,2.221-0.989,2.221-0.989l-1.002-0.22L303.47-133.771z"/>
	<path display="inline" fill="#FFF100" d="M284.706-145.557c-0.898-1.312-2.132,0.18-3.05-1.134
		c-0.404-0.579,0.641-1.959-0.849-2.755c-0.915-0.487-2.754-0.968-3.843,0.27c-0.957,1.086,0.769,2.204,0.562,2.805
		c-0.204,0.602-1.239,0.268-1.822,0.545c-0.58,0.276-1.33,1.225-1.126,1.936c0.208,0.705,1.497,0.087,1.677,0.941
		c0.174-0.022,0.339-0.041,0.501-0.055c1.631-0.15,2.948,0.094,3.993,0.525c0.115-0.179,0.203-0.358,0.241-0.525
		c0.169-0.735-0.462-0.79-0.281-1.371c0.184-0.581,1.692-0.11,2.45,0.428C284.556-142.96,285.154-144.899,284.706-145.557z"/>
	<path display="inline" fill="#E25A6B" d="M288.347-154.958c-0.752,0.97,0.225,1.587-1.675,1.908
		c-0.788,0.135-2.921-0.602-4.089,0.872c-1.152,1.455-0.41,2.998,1.102,3.423c1.508,0.426,2.504-1.975,3.919-2.255
		c0.04-0.009,0.069-0.003,0.111-0.009c0.607-0.802,1.565-1.624,2.372-2.417C290.592-154.825,289.024-155.837,288.347-154.958z"/>
	<path display="inline" fill="#48C7E5" d="M420.612-148.416c-0.903-1.381,3.933-5.177,4.855-7.574
		c-0.414-0.23-1.028-0.417-1.64,0.009c-1.047,0.732-0.312,1.204-1.611,2.041c-1.301,0.835-2.985,1.171-3.345,2.905
		c-0.361,1.734-1.631,2.961-3.263,2.812c-1.635-0.148-3.812,0.619-3.027,1.833c0.786,1.216,1.751,3.12,3.99,2.569
		c2.239-0.551,2.836-0.768,3.338,0.117c0.499,0.886,1.733,0.974,2.025,0.779c0.162-0.109,0.592-0.396,0.69-0.844
		c-0.248-0.258-0.383-0.547-0.317-0.899c0.006-0.02,0.025-0.034,0.034-0.052c-0.11-0.138-0.25-0.285-0.431-0.438
		c-1.489-1.253,0.176-1.894,1.105-1.698c0.938,0.199,3.458-0.067,4.064-0.811c0.604-0.742,0.09-1.188,0.779-1.367
		c0.659-0.171,1.338-0.029,1.829-0.433C428.239-151.007,421.813-146.772,420.612-148.416z"/>
	<path display="inline" fill="#48C7E5" d="M406.438-152.123c0.403-0.25,0.44-0.747,0.896-1.042c0.479-0.308,1.408-0.396,1.746-0.682
		c-1.13-0.997-2.292-1.807-3.269-0.818C405.053-153.896,405.559-153.029,406.438-152.123z"/>
	<path display="inline" fill="#B29B8D" d="M306.458-182.521c0,0-8.241-9.073-14.751-3.158c-6.51,5.917-1.371,15.545,2.785,19.131
		c7.032,6.069,16.022,1.907,16.022,1.907L306.458-182.521z"/>
	<path display="inline" fill="#E25A6B" d="M281.259-162.269c-1.195,0.078-1.343,1.373-1.179,2.989
		c0.248,0.05,0.498,0.16,0.649,0.401c0.363,0.587,1.141,1.676,1.531,1.782c0.326,0.09,0.661,0.109,0.977-0.669
		C282.762-160.023,282.27-162.334,281.259-162.269z"/>
	<path display="inline" opacity="0.1" fill="#404041" d="M301.413-181.574c0,0-4.786-3.227-7.447,1.426
		c-2.704,4.722,1.957,9.506,1.957,9.506s-2.187-3.99-0.715-7.665C296.867-182.441,301.413-181.574,301.413-181.574z"/>
	<path display="inline" opacity="0.1" fill="#404041" d="M333.429-153.586c0,0-0.907-2.521,0.455-4.268
		c1.298-1.667,3.731-0.996,3.731-0.996S333.254-158.975,333.429-153.586z"/>
	<path display="inline" fill="#F4C9A2" d="M215.895-157.182c0,0,0.218-2.671-1.554-4.003c-1.689-1.267-3.862,0.016-3.862,0.016
		S214.655-162.431,215.895-157.182z"/>
	<polygon display="inline" fill="#DFDFED" points="182.477,-99.108 173.729,-93.097 145.684,-122.268 157.581,-124.432 	"/>
	<polygon display="inline" opacity="0.4" fill="#FFFFFF" points="150.489,-117.271 178.028,-103.634 157.581,-124.432 
		145.684,-122.268 	"/>
	<path display="inline" fill="#FFEB73" d="M317.257-132.903c2.765-0.423,18.16,2.838,18.16,2.838l5.752-0.087
		c0,0,0.938,3.051,6.03,3.307c5.094,0.254,6.516-3.393,6.516-3.393l6.952,1.256c0,0,13.165-1.675,16.898-1.404
		c2.31,1.904,4.185,11.529,2.446,14.875c-5.137,1.966-13.279,2.469-13.279,2.469s-1.102,11.541,3.076,27.239
		c-7.055-1.51-24.697-2.495-42.326,0.541c-1.503-17.878,1.402-29.832,1.402-29.832s-8.761-0.538-13.989-3.525
		C318.25-117.856,320.917-131.439,317.257-132.903z"/>
</g>
<g id="Layer_8" display="none">
	<path display="inline" fill="#F9E8F1" d="M79.286,66.554c0,0-5.419,1.274-7.393,6.501c-1.974,5.225-1.819,26.859-1.664,31.194
		c0.154,4.336,6.966,25.234,8.359,28.797l5.883-1.549l-6.656-27.866l1.044-24.19c0,0,0.503,4.53,1.432,11.883
		c1.026,8.117,8.902-3.639,8.902-3.639l1.161-14.863L79.286,66.554z"/>
	<path display="inline" fill="#F9E8F1" d="M114.124,66.616c0,0,5.418,1.276,7.393,6.501c1.974,5.226,11.733,24.651,11.733,24.651
		l-7.75,3.875l-10.951-22.141c0,0-0.503,4.53-1.432,11.884c-1.026,8.116-8.902-3.639-8.902-3.639l-1.161-14.862L114.124,66.616z"/>
	<path display="inline" opacity="0.3" fill="#E8CADC" d="M113.614,87.401c0.61-4.967,0.936-7.898,0.936-7.898l1.097,2.219
		c0,0-0.75-1.683-1.188-3.37c-1.25,4.334-1.552,7.323-1.552,7.323L113.614,87.401z"/>
	<path display="inline" fill="#231F20" d="M211.286,172.112c0,0,0.078,2.406,0.991,4.337c1.196,2.528,4.231,4.69,4.985,6.341
		c0.535,1.176-0.364,3.806-2.267,3.985c-1.902,0.183-10.111-3.704-11.289-6.06c-1.177-2.355-0.812-8.594-0.812-8.594
		C202.942,171.082,210.901,170.311,211.286,172.112z"/>
	<path display="inline" fill="#231F20" d="M191.094,172.175c0,0-0.078,2.406-0.991,4.337c-1.195,2.528-4.23,4.69-4.985,6.341
		c-0.535,1.176,0.364,3.806,2.267,3.985c1.902,0.183,10.111-3.704,11.29-6.06c1.176-2.355,0.812-8.594,0.812-8.594
		C199.438,171.145,191.479,170.373,191.094,172.175z"/>
	<path display="inline" fill="#EF7DAC" d="M105.158,182.236c0,0-0.177,2.582-1.278,4.935c-1.185,2.532-2.627,4.477-2.709,6.289
		c-0.077,1.701,0.974,4.877,4.413,4.102c3.096-0.696,5.75-4.377,6.928-6.734c1.177-2.354,0.813-8.592,0.813-8.592
		C112.841,181.315,106.138,181.456,105.158,182.236z"/>
	<path display="inline" fill="#EF7DAC" d="M87.761,182.236c0,0,0.177,2.582,1.278,4.935c1.185,2.532,2.627,4.477,2.709,6.289
		c0.077,1.701-0.974,4.877-4.413,4.102c-3.096-0.696-5.75-4.377-6.928-6.734c-1.177-2.354-0.813-8.592-0.813-8.592
		C80.078,181.315,86.781,181.456,87.761,182.236z"/>
	<polygon display="inline" fill="#FFE6E1" points="210.811,140.539 203.57,140.539 203.594,173.644 210.781,173.675 	"/>
	<rect x="191.809" y="141.143" display="inline" fill="#FFE6E1" width="7.24" height="32.257"/>
	<path display="inline" fill="#404041" d="M191.094,172.175c0,0-0.078,2.406-0.991,4.337c-1.195,2.528-4.23,4.69-4.985,6.341
		c-0.535,1.176,0.364,3.806,2.267,3.985c1.902,0.183,10.111-3.704,11.29-6.06c1.176-2.355,0.812-8.594,0.812-8.594
		C199.292,173.728,191.458,173.54,191.094,172.175z"/>
	<path display="inline" fill="#D13359" d="M217.415,129.883c0,0,0.681,6.071,7.252,20.469c-19.5,9.667-43.425,1.604-46-0.333
		c6.333-15.834,5.481-20.268,5.481-20.268C201.353,133.561,217.415,129.883,217.415,129.883z"/>
	<path display="inline" fill="#F9E8F1" d="M101.502,55.947l-10.837-0.153l0.155,9.754c0,0-6.628,0.461-7.818,0.541
		c-0.959,0.227,3.638,15.945,3.638,15.945c1.42,0.777,7.19,3.275,9.056,3.405c2.887,0.2,9.113-2.063,12.191-3.908l3.046-15.506
		l-9.315-0.75L101.502,55.947z"/>
	<rect x="105.501" y="145.364" display="inline" fill="#F9E8F1" width="7.238" height="37.726"/>
	<rect x="80.039" y="145.837" display="inline" fill="#F9E8F1" width="7.239" height="37.729"/>
	<path display="inline" fill="#FF92B9" d="M87.761,182.236c0,0,0.177,2.582,1.278,4.935c1.185,2.532,2.627,4.477,2.709,6.289
		c0.077,1.701-0.974,4.877-4.413,4.102c-3.096-0.696-5.75-4.377-6.928-6.734c-1.177-2.354-0.813-8.592-0.813-8.592
		C80.062,183.175,86.844,183.425,87.761,182.236z"/>
	<path display="inline" opacity="0.3" fill="#E8CADC" d="M101.578,61.581l-0.076-5.634l-10.837-0.153l0.101,6.1
		c1.109,0.719,3.116,1.179,5.359,1.125C98.719,62.956,100.25,62.487,101.578,61.581z"/>
	<path display="inline" fill="#E56F33" d="M147.172-26.721c10.755-1.512,35.932,10.142,33.2,45.678
		c-2.158,27.625-17.841,37.983-12.374,58.125c5.467,20.145,19.04,29.438,30.262,35.373c-14.872-4.604-37.6-15.086-43.211-38.826
		c-5.611-23.737,22.443-39.42,18.416-64.453c-4.028-25.034-17.481-31.148-24.135-30.178L147.172-26.721z"/>
	<path display="inline" fill="#E56F33" d="M46.535-28.016C32.833-29.98,12.336-10.837,12.5,13.519s17.25,37,13.209,62.271
		c-3.177,19.87-17.696,30.103-29.603,37.55c9.727-2.987,13.977-5.987,13.977-5.987s-0.75,3.75-13.724,9.872
		c16.39-1.955,39.365-20.262,42.298-44.889C42,44.269,17.297,30.86,20.243,7.88C22.5-9.731,34.75-23.064,44.377-22.298
		L46.535-28.016z"/>
	<path display="inline" fill="#FF92B9" d="M54.843-29.744c0,0-7.285-3.809-10.358,3.023c-3.884,8.633,4.331,11.134,4.331,11.134
		L54.843-29.744z"/>
	<path display="inline" fill="#FF92B9" d="M140.966-29.031c0,0,5.176-4.336,8.787,2.229c4.436,8.064-4.485,10.079-4.485,10.079
		L140.966-29.031z"/>
	<path display="inline" fill="#E56F33" d="M98.798-51.683C45.274-53.174,38.551-2.499,47.449,22.74
		c32.572-11.926,87.944-18.439,95.647-0.163C149.47,11.195,161.758-51.368,98.798-51.683z"/>
	<path display="inline" fill="#F9E8F1" d="M46.606,12.61c0.788,30.488,29.681,46.739,46.768,47.207
		c16.952,0.465,42.96-9.754,49.38-34.966c2.97-15.02-6.67-51.317-6.67-51.317s-23.377-13.3-34.672-14.337
		c-11.293-1.041-33.454,4.235-43.524,16.896C47.816-11.245,47.731,8.267,46.606,12.61z"/>
	<path display="inline" fill="#E56F33" d="M47.449,22.74c35.941-3.01,60.988-37.735,60.988-37.735s10.366,30.673,34.659,37.572
		c8.052-30.011-7.102-55.762-7.102-55.762L115.436-47.24c0,0-29.68,1.234-44.005,7.071C45.662-30.69,43.925,10.407,47.449,22.74z"/>
	<g display="inline">
		<circle fill="#FFFFFF" cx="74.061" cy="30.999" r="7.511"/>
		<circle fill="#404041" cx="74.026" cy="32.494" r="3.426"/>
	</g>
	<g display="inline">
		<circle fill="#FFFFFF" cx="120.506" cy="31" r="7.511"/>
		<circle fill="#404041" cx="120.596" cy="32.495" r="3.426"/>
	</g>
	<path display="inline" fill="#FFFFFF" d="M86.794,47.511c2.127-2.168,6.038,0.154,8.825,0.154s5.963-2.322,8.669-0.31
		c2.707,2.013-1.159,8.205-8.698,7.896C88.053,54.942,84.668,49.678,86.794,47.511z"/>
	<path display="inline" fill="#E56F33" d="M65.275,21.993c0,0,2.6-3.929,7.122-4.472c5.109-0.613,7.895,3.252,7.895,3.252
		s-3.543-2.343-7.875-1.742C68.875,19.522,65.275,21.993,65.275,21.993z"/>
	<path display="inline" fill="#E56F33" d="M128.284,22.056c0,0-2.03-3.831-7.159-4.572c-5.093-0.736-7.857,3.354-7.857,3.354
		s4.068-2.466,7.94-1.905C124.266,19.374,125.833,20.285,128.284,22.056z"/>
	<path display="inline" fill="#A5E5EF" d="M79.286,66.554c0.852-0.233,3.715-0.465,3.715-0.465s1.838,4.529,4.554,14.799
		c7.734,2.849,18.629,0.624,18.9,0.141c1.315-7.335,4.477-15.003,4.477-15.003s2.094,0.165,3.225,0.586
		c-2.845,10.392-1.975,17.241-1.975,17.241c2.709,3.755,16.72,40.059,19.275,71.641c-26.958,5.692-39.71,4.645-68.982-0.14
		c4.192-34.694,15.803-65.27,18.474-71.151C81.298,83.117,81.105,73.83,79.286,66.554z"/>
	<path display="inline" fill="#5FA3AA" d="M75,128.388c0,0,5.094-0.932,14.911,0c0,0,2.955,13.293-7.244,13.575
		C72.468,142.244,75,128.388,75,128.388z"/>
	<path display="inline" fill="#FFE6E1" d="M174.375,109.144l3.66,6.851c0,0-23.746,11.173-27.931,12.19l-1.815-5.805
		C153.234,120.394,174.375,109.144,174.375,109.144z"/>
	<path display="inline" opacity="0.3" fill="#EACBC5" d="M153.438,123.227c-0.792-1.5-1.438-2.166-1.87-2.349
		c-0.689,0.348-1.313,0.648-1.868,0.903c-0.306,0.29-0.545,0.546-0.554,0.651c-0.025,0.312,0.195,1.178,0.342,1.838
		s0.614,1.232,0.983,1.911c0.23,0.42,0.894,1.06,1.419,1.478c0.669-0.27,2.443-0.995,2.443-0.995S154.456,125.156,153.438,123.227z"
		/>
	<path display="inline" fill="#F9E8F1" d="M133.25,97.769l-7.75,3.875c0,0,11.262,15.695,14.697,19.391l6.053-4.141
		C142.587,113.006,133.25,97.769,133.25,97.769z"/>
	<path display="inline" fill="#F9E8F1" d="M146.25,116.894c0,0,1.6,2.038,2.212,2.447c1.264,0.843,2.904,1.626,4.004,3.559
		c0.964,1.695,1.692,2.794,0.749,4.824c-0.86,1.853-7.034,5.44-8.245,2.506c-0.603-1.458-0.571-2.736-2.227-4.046
		c-0.621-0.488-1.244-0.151-1.652-0.597c-0.698-0.765-1.347-1.658-1.314-2.61c0.04-1.151,0.421-1.942,0.421-1.942L146.25,116.894z"
		/>
	<path display="inline" opacity="0.3" fill="#E8CADC" d="M145.935,129.377c0.149-0.08,0.297-0.159,0.436-0.234
		c0.711-0.384,0.016-1.972-1.05-1.362c0,0-0.096,0.042-0.243,0.108c0.055-0.03,0.103-0.055,0.159-0.085
		c0.711-0.386,0.015-1.972-1.053-1.364c0,0-0.224,0.102-0.524,0.248c0.116-0.063,0.233-0.127,0.369-0.201
		c0.71-0.385,0.016-1.975-1.051-1.366c0,0-0.688,0.51-1.327,0.908c0.342,0.058,0.696-0.157,1.092,0.155
		c1.655,1.31,1.624,2.588,2.227,4.046c0.19,0.462,0.228,0.705,0.624,0.876c0.291-0.076,0.688-0.227,1.04-0.419
		C147.289,130.334,146.852,129.096,145.935,129.377z"/>
	<path display="inline" fill="#FFE6E1" d="M142.89,125.314c0,0-0.756,0.339-1.386,0.749c-0.595,0.387,0.104,1.705,0.877,1.372
		c0.482-0.209,0.855-0.438,1.51-0.802C144.574,126.258,143.917,124.717,142.89,125.314z"/>
	<path display="inline" fill="#FFE6E1" d="M144.039,126.59c0,0-0.991,0.457-1.622,0.867c-0.595,0.386,0.104,1.706,0.876,1.37
		c0.483-0.207,1.091-0.556,1.747-0.918C145.723,127.531,145.065,125.993,144.039,126.59z"/>
	<path display="inline" fill="#FFE6E1" d="M145.121,127.885c0,0-1.213,0.546-1.845,0.955c-0.593,0.388,0.105,1.706,0.878,1.371
		c0.484-0.208,1.312-0.645,1.965-1.007C146.803,128.828,146.145,127.288,145.121,127.885z"/>
	<path display="inline" fill="#FFE6E1" d="M145.473,129.517c0,0-0.637,0.278-1.268,0.688c-0.593,0.387,0.047,1.587,0.819,1.252
		c0.482-0.208,0.738-0.377,1.393-0.742C147.1,130.339,146.5,128.919,145.473,129.517z"/>
	<path display="inline" fill="#FFE6E1" d="M207.13,93.308l-10.354,0.076l-0.096,5.033c0,0-2.458-0.038-3.648,0.047
		c-0.959,0.233,2.828,12.767,2.828,12.767c1.425,0.768,3.537,1.727,5.403,1.847c2.886,0.183,4.645,0.025,7.711-1.838l2.297-12.765
		l-3.91-0.232L207.13,93.308z"/>
	<path display="inline" fill="#FFE6E1" d="M194.863,127.441"/>
	<path display="inline" fill="#404041" d="M264.833,75.353c-3.833-7.833-3.39-13.442-3.202-18.591
		c1.536-42.242-18.955-65.819-61.285-65.167c-38.346,0.591-53.712,31.7-53.936,66.866c-0.032,5.024-0.078,12.808-3.411,16.808
		C152.133,89.201,249.663,90.524,264.833,75.353z"/>
	<path display="inline" fill="#FFE6E1" d="M225.428,107.961l-4.777,5.44c0,0,19.254,17.29,23.087,19.253l3.12-5.223
		C242.406,124.473,225.428,107.961,225.428,107.961z"/>
	<path display="inline" opacity="0.3" fill="#EACBC5" d="M197.347,93.381c-0.211,0.286-0.41,0.569-0.588,0.847l-0.041,2.182
		c0.948,0.526,2.5,1.175,5.156,1.235c2.281,0.052,4.25-0.459,5.375-1.292l-0.12-3.045L197.347,93.381z"/>
	<path display="inline" fill="#FFE6E1" d="M252.76,50.841c0.71,25.128-24.195,44.08-50.332,44.038
		c-26.138-0.042-48.838-15.626-49.546-40.754C152.17,28.997,175.12,4.712,201.248,3.973C227.373,3.236,252.051,25.714,252.76,50.841
		z"/>
	<path display="inline" fill="#404041" d="M152.333,67.186c13.756-14.931,29.546-18.356,44.568-19.468l1.999-17.386l2.608,17.189
		c2.072-0.023,4.118,0.036,6.143,0.168l4.478-18.352l1.516,18.953l7.956,1.425l5.564-17.086l-0.661,18.301
		c17.564,4.806,31.162,17.588,31.162,17.588s-7.038-39.985-9.327-44.258c-2.288-4.273-14.103-20.136-19.579-22.146
		C223.286,0.101,210.784-3.152,202-1.147C140.628,12.868,149.278,64.482,152.333,67.186z"/>
	<path display="inline" fill="#FFE6E1" d="M246.857,127.432c0,0,2.516,0.584,5.583,0.015c3.068-0.573,4.602-0.854,6.518-0.761
		c3.158,0.152,2.604,1.514,0.393,2.134c-2.21,0.619-8.617,1.533-8.586,3.489c0.023,1.563,1.964,1.616,3.562,2.845
		c1.015,0.777,0.248,2.744-1.834,1.522c-2.766-1.358-3.465-1.385-5.526-2.317c-1.604-0.722-3.229-1.704-3.229-1.704L246.857,127.432
		z"/>
	<path display="inline" fill="#FFFFFF" d="M194.262,81.388c1.841-2.514,5.298-0.387,7.709-0.387c2.411,0,5.089-2.127,7.433,0.206
		c2.34,2.335-1.005,9.517-7.53,9.158C195.353,90.006,192.424,83.902,194.262,81.388z"/>
	<g display="inline">
		<circle fill="#FFFFFF" cx="179.562" cy="69.367" r="7.511"/>
		<circle fill="#404041" cx="179.581" cy="71.137" r="3.427"/>
	</g>
	<path display="inline" fill="#404041" d="M171.32,61.72c0,0,1.995-3.654,6.662-4.281c4.87-0.654,7.669,3.062,7.669,3.062
		s-3.949-2.084-7.222-1.843C174.613,58.938,171.32,61.72,171.32,61.72z"/>
	<g display="inline">
		<circle fill="#FFFFFF" cx="226.006" cy="69.366" r="7.51"/>
		<circle fill="#404041" cx="226.061" cy="70.927" r="3.426"/>
	</g>
	<path display="inline" fill="#F9E8F1" d="M71.894,73.055c-1.974,5.225-1.819,26.859-1.664,31.194
		c0.154,4.336,6.966,25.234,8.359,28.797L85,131.144l-6.917-27.375L78.86,79.44C78.86,79.44,73.867,67.828,71.894,73.055z"/>
	<path display="inline" fill="#71BBBF" d="M75,128.388c0,0,8.188,1.881,14.911,0c0,0,2.955,13.293-7.244,13.575
		C72.468,142.244,75,128.388,75,128.388z"/>
	<path display="inline" fill="#5FA3AA" d="M104.75,128.513c0,0,4.917-0.368,14.911,0c0,0,2.955,13.293-7.244,13.575
		C102.218,142.369,104.75,128.513,104.75,128.513z"/>
	<path display="inline" fill="#71BBBF" d="M104.75,128.513c0,0,7.417,0.632,14.911,0c0,0,2.955,13.293-7.244,13.575
		C102.218,142.369,104.75,128.513,104.75,128.513z"/>
	<path display="inline" opacity="0.3" fill="#E8CADC" d="M99.25,56.186c0,0-1.635,1.853-4.406,1.458
		C92.752,57.344,92,56.103,92,56.103S95.3,58.316,99.25,56.186z"/>
	<path display="inline" opacity="0.3" fill="#EACBC5" d="M205.37,91.335c0,0-1.159,1.686-3.641,1.514
		c-2.177-0.151-2.958-1.591-2.958-1.591S201.882,93.562,205.37,91.335z"/>
	<path display="inline" opacity="0.4" fill="#B22F54" d="M219.426,137.37c-1.747-5.162-2.011-7.487-2.011-7.487
		s-16.062,3.678-33.266-0.132c0,0,0.352,1.854-1.101,7.425C189.055,138.973,203.275,142.048,219.426,137.37z"/>
	<path display="inline" fill="#F47D8F" d="M220.541,101.28c7.449,4.063,8.602,6.55,16.335,13.517
		c-1.001,2.787-5.241,7.612-8.438,8.312c-4.595-1.619-8.903-7.663-8.903-7.663s2.091,6.822,3.341,19.822
		C200,143.394,180,135.144,180,135.144c0.417-11.125,3.936-20.935,3.936-20.935s-6.913,6.232-8.795,6.85
		c-3.308,0.406-8.707-7.315-9.635-10.258c7.893-3.097,9.859-6.532,17.182-9.945c3.405-1.587,10.345-2.392,10.345-2.392
		s1.748,5.221,7.602,6.04c0,0-0.322,2.14,1.428,4.452c1.531-2.125,1.562-4.427,1.562-4.427c5.992-0.731,7.646-6.055,7.646-6.055
		S216.668,99.169,220.541,101.28z"/>
	<path display="inline" fill="#FF92B9" d="M105.158,182.236c0,0-0.177,2.582-1.278,4.935c-1.185,2.532-2.627,4.477-2.709,6.289
		c-0.077,1.701,0.974,4.877,4.413,4.102c3.096-0.696,5.75-4.377,6.928-6.734c1.177-2.354,0.813-8.592,0.813-8.592
		C112.856,183.175,106.075,183.425,105.158,182.236z"/>
	<path display="inline" fill="#404041" d="M211.286,172.112c0,0,0.078,2.406,0.991,4.337c1.196,2.528,4.231,4.69,4.985,6.341
		c0.535,1.176-0.364,3.806-2.267,3.985c-1.902,0.183-10.111-3.704-11.289-6.06c-1.177-2.355-0.812-8.594-0.812-8.594
		C203.089,173.665,210.921,173.478,211.286,172.112z"/>
	<path display="inline" fill="#404041" d="M234.187,61.804c0,0-1.916-3.696-6.568-4.424c-4.854-0.759-7.733,2.896-7.733,2.896
		s3.993-1.998,7.261-1.687C230.954,58.953,234.187,61.804,234.187,61.804z"/>
	<path display="inline" opacity="0.3" fill="#E8CADC" d="M78.578,87.409c0.156-2.938,0.282-7.969,0.282-7.969
		s0.179,1.855,0.89,7.594l0.594-1.484c0,0-0.25-2.094-1.562-7.141C78.625,81.425,78.5,83.128,78.578,87.409z"/>
</g>
<g id="Layer_4" display="none">
	<rect x="-39" y="-295.481" display="inline" fill="#61C7FF" width="526" height="516"/>
</g>
<g id="Layer_7">
	<path fill="#4575BA" d="M137.012,206.064c2.223,2.949,19.614,1.043,18.401-1.332c-1.216-2.375-7.227-6.126-7.374-6.333
		C147.892,198.19,135.218,203.686,137.012,206.064z"/>
	<path fill="#FED7AF" d="M151.458,210.103c-1-12-2.208-19.351-2.208-19.351l-11,1c0,0,0.833,5.226,2.083,18.351H151.458z"/>
	<path fill="#F4C9A2" d="M139.881,205.908c0,0,2.949-0.787,5.928-0.912s5.191,0.351,5.191,0.351c-0.24-2.299-0.479-4.433-0.7-6.312
		c-3.32-0.858-10.226-2.104-10.825-1.705c-0.109,0.072-0.291,0.155-0.512,0.247C139.219,199.779,139.534,202.594,139.881,205.908z"
		/>
	<path fill="#4575BA" d="M107,206.019c0.661,2.938,19.473,2.844,19.583,0c0.073-1.857-7.074-10.994-7.074-10.994
		S107.826,203.019,107,206.019z"/>
	<path fill="#FED7AF" d="M110.875,210.312c-0.214-12.357,1.636-18.436,1.636-18.436L124,192.519c0,0-1.458,3.626-2.125,17.793
		H110.875z"/>
	<path fill="#F4C9A2" d="M110.891,205.347c0,0,2.641-0.357,5.609-0.327s5.625,0.593,5.625,0.593
		c0.196-2.145,0.464-4.034,0.671-5.665c-2.781-1.218-7.878-2.853-9.296-2.595c-0.464,0.084-1.143,0.266-1.894,0.507
		C111.352,199.947,110.969,202.394,110.891,205.347z"/>
	<path fill="#6697EA" d="M112.125,175.644c-2.938,11.938-1.749,18-5.125,30.375c1.064-3.969,19.179-2.406,19.583,0
		c0.66-4.125,5.75-14,5.75-14s1.942,11.442,4.678,14.046c-0.383-3.207,16.939-3.75,18.401-1.332
		c-1.95-6.418-0.871-15.63-5.913-29.339C149.5,175.394,114.024,172.058,112.125,175.644z"/>
	<path opacity="0.3" fill="#4575BA" d="M150.688,178.769c-0.416-1.389-0.638-1.881-1.188-3.375c0,0-35.476-3.336-37.375,0.25
		c-0.338,1.375-0.57,2.324-0.812,3.562c0,0,11.687,1.328,20.271,1.479C141,180.852,150.688,178.769,150.688,178.769z"/>
	<polygon fill="#FED7AF" points="125.24,128.963 124.32,143.506 137.387,144.254 136.949,129.046 	"/>
	<path fill="#F4C9A2" d="M136.949,129.046l-11.709-0.083l-0.487,7.707c0.676,0.395,1.185,0.661,1.185,0.661l1.562-3.75
		c0,0,2.685,1.098,5.062,1.125c1.812,0.021,3.146-0.312,4.523-0.911L136.949,129.046z"/>
	<path fill="#910000" d="M1.833,162.519c22.083-4,29.667,9,43.167,10.75s22.5-8.75,34.5-8.25s19.761,8.867,26.333,10
		c7.25,1.25,16.75-2.75,17.5-7c1.151-6.521,10.167-6.25,10.167-6.25l-10-25.563c0,0-21.667-0.48-26.833,0.289
		c-5.166,0.771-9.018,4.402-14.166,8.087C53.25,165.519,16.917,153.186,1.833,162.519z"/>
	<path fill="#A6A8AB" d="M152.146,164.769c2.125,3.375,11.688-0.312,11.188-4.25c-2.592-3.848-8.266-6.447-8.266-6.447
		S150.858,162.186,152.146,164.769z"/>
	<path fill="#A6A8AB" d="M95.496,159.06c-0.584,3.615,12.71,6.91,13.588,4.21c0.413-1.747-1.581-8.675-1.684-9.041
		C107.295,153.86,96.843,156.381,95.496,159.06z"/>
	<path fill="#404041" d="M78.172,59.504c0,0-1.919,7.103-1,17.666c1.666,19.167,12.5,30.334,21.333,33.5
		c8.833,3.167,5.667-1.333,5.667-1.333l0.333-34.333c0,0-0.167-9.334-1.333-10.834c-1.167-1.5-11.5-10.166-12.667-10.166
		S78.172,59.504,78.172,59.504z"/>
	<path fill="#FED7AF" d="M176.005,85.504c-1.147,26.002-21.458,48.662-46.25,45.75c-26.25-3.083-41.75-19.224-41.75-45.25
		s7-52.5,46.375-48C177.22,42.9,176.755,68.504,176.005,85.504z"/>
	<path fill="#FED7AF" d="M89.338,84.504c0,0-1.333-6.834-7.5-6.5c-3.684,0.199-7.166,5.333-5.5,12.166
		c1.667,6.834,6.137,12.322,11.5,12.668c5.167,0.332,6.834-1.834,6.834-1.834s-1-9.666-1.167-10.166S89.338,84.504,89.338,84.504z"
		/>
	<path fill="#FED7AF" d="M172.755,99.838c0,0,1.252-2.25,2.917-1.834c3.666,0.917,3.084,7.584,0.25,11.584s-7.015,3.724-8.693,2.681
		C164.808,110.763,172.755,99.838,172.755,99.838z"/>
	<g>
		<circle fill="#FFFFFF" cx="123.142" cy="78.648" r="7.014"/>
		<path fill="#404041" d="M128.212,78.285c-0.088,1.764-1.59,3.123-3.354,3.036c-1.763-0.087-3.124-1.589-3.04-3.354
			c0.088-1.766,1.593-3.125,3.355-3.038C126.938,75.018,128.299,76.519,128.212,78.285z"/>
	</g>
	<g>
		<circle fill="#FFFFFF" cx="159.976" cy="87.731" r="7.014"/>
		<path fill="#404041" d="M165.045,87.368c-0.088,1.764-1.59,3.124-3.354,3.037c-1.763-0.088-3.124-1.589-3.04-3.354
			c0.088-1.766,1.593-3.125,3.355-3.039C163.772,84.102,165.132,85.603,165.045,87.368z"/>
	</g>
	<path fill="#FFFFFF" d="M109.407,137.542c5.682-2.41,15.343-1.461,15.343-1.461s1.272,3.542,5.75,3.625
		c5.653,0.105,6.666-3.452,6.666-3.452s7.296,0.128,12.126,2.586c6.472,3.295,8.811,13.905,14.042,21.679
		c-2-3-10.75-1.292-11.188,4.25c-1.969-3.438-4.531-9.765-4.531-9.765s1.258,5.727,3.885,22.849
		c-12.769,2.003-22.637,2.08-41.333,0.083c1.852-12.414,0.181-13.304,2.149-23.682c-1.234,3.265-3.232,9.016-3.232,9.016
		c0.539-2.586-11.056-7.522-13.588-4.21C99.246,150.578,104.79,139.5,109.407,137.542z"/>
	<path fill="#FED7AF" d="M110.5,152.02c-4.125,9-6.875,16.665-6.875,16.665s0.338,3.611,6.776,12.099l-4.663,5.474
		c-4.412-4.343-10.794-13.943-10.655-17.489c0.139-3.542,3.083-10.497,8.75-20.915L110.5,152.02z"/>
	<path fill="#FED7AF" d="M109.693,179.852c0.905,0.854,2.938,0.619,4.771,0.639c3.718,0.028,5.103,0.725,6.57,1.467
		c1.529,0.776,1.019,2.91-0.684,2.363c-1.689-0.543-5.064-2.093-5.486-0.947c-0.123,0.332,1.356,0.807,2.898,1.478
		c1.051,0.46,2.113,0.969,2.92,1.559c1.32,0.964,0.535,3.067-1.36,2.101c-0.814-0.415-1.676-1.023-2.652-1.492
		c-1.502-0.722-3.061-1.12-3.295-0.366c-0.18,0.578,1.334,1.19,2.804,2.028c0.837,0.48,1.629,1.034,2.199,1.665
		c0.846,0.938-0.049,2.651-1.744,1.475c-0.577-0.401-1.144-0.78-1.75-1.188c-1.321-0.891-2.59-1.661-2.988-1.107
		c-0.408,0.564,2.067,2.402,2.873,3.336c0.932,1.08-0.323,2.595-1.582,1.477c-1.255-1.117-3.013-2.722-4.134-4.479
		c-1.123-1.755-3.315-3.601-3.315-3.601S106.979,180.271,109.693,179.852z"/>
	<path fill="#FED7AF" d="M147.625,151.229c4.542,8.292,7.986,16.791,7.986,16.791s0.864,2.798-4.777,11.835l4.948,4.508
		c8.125-11.938,7.927-14.551,7.177-17.426c-0.706-2.705-2.792-9.582-8.458-19.583L147.625,151.229z"/>
	<path fill="#FED7AF" d="M151.5,178.769c-0.58,1.008-2.732,1.381-4.408,1.737c-3.403,0.72-4.544,1.612-5.751,2.566
		c-1.257,0.993-0.395,2.855,1.065,2.038c1.448-0.811,4.254-2.856,4.853-1.886c0.174,0.282-1.093,0.991-2.382,1.894
		c-0.878,0.615-1.757,1.278-2.387,1.968c-1.032,1.13,0.079,2.912,1.637,1.675c0.669-0.531,1.346-1.249,2.153-1.86
		c1.244-0.941,2.598-1.596,2.953-0.948c0.273,0.497-1.003,1.338-2.193,2.381c-0.678,0.595-1.301,1.25-1.706,1.933
		c-0.603,1.019,0.537,2.422,1.872,1.029c0.454-0.475,0.904-0.928,1.383-1.413c1.045-1.062,2.066-2.003,2.532-1.572
		c0.48,0.445-1.447,2.588-2.013,3.592c-0.655,1.165,0.777,2.319,1.723,1.061c0.944-1.258,2.373-3.341,3.076-5.16
		c0.703-1.817,2.594-4.502,2.594-4.502S152.094,177.737,151.5,178.769z"/>
	<path fill="#404041" d="M116.375,67.346c0,0,0.177-0.277,0.601-0.664c0.415-0.385,1.083-0.887,1.995-1.283
		c0.455-0.203,0.969-0.406,1.527-0.531c0.565-0.141,1.171-0.237,1.807-0.256c0.628-0.047,1.289-0.005,1.949,0.089
		c0.68,0.085,1.275,0.24,1.994,0.462l0.854,0.315c0.317,0.137,0.637,0.294,0.945,0.449c0.593,0.317,1.132,0.667,1.631,1.056
		c0.988,0.777,1.767,1.672,2.279,2.521c0.536,0.83,0.82,1.611,0.967,2.16c0.149,0.553,0.158,0.885,0.158,0.885
		s-0.939-0.914-2.345-1.935c-0.718-0.499-1.539-1.036-2.458-1.517c-0.453-0.246-0.945-0.467-1.424-0.682
		c-0.241-0.09-0.471-0.189-0.712-0.295l-0.857-0.307c-0.442-0.133-1.023-0.326-1.527-0.434c-0.517-0.131-1.035-0.229-1.541-0.296
		c-1.017-0.144-1.994-0.177-2.856-0.146C117.642,67.016,116.375,67.346,116.375,67.346z"/>
	<path fill="#404041" d="M169.938,82.935c0,0,0.029-0.306-0.059-0.835c-0.084-0.521-0.286-1.278-0.728-2.097
		c-0.218-0.411-0.478-0.857-0.817-1.272c-0.335-0.429-0.726-0.85-1.182-1.23c-0.435-0.396-0.946-0.747-1.486-1.06
		c-0.549-0.33-1.077-0.56-1.733-0.811l-0.811-0.262c-0.312-0.083-0.638-0.151-0.954-0.215c-0.621-0.109-1.219-0.163-1.811-0.165
		c-1.175,0.001-2.264,0.211-3.132,0.539c-0.874,0.303-1.534,0.714-1.958,1.031c-0.429,0.321-0.626,0.561-0.626,0.561
		s1.219-0.131,2.842-0.07c0.816,0.048,1.73,0.127,2.684,0.304c0.476,0.08,0.965,0.203,1.442,0.32
		c0.229,0.074,0.456,0.133,0.695,0.194l0.807,0.269c0.401,0.159,0.941,0.352,1.374,0.563c0.457,0.202,0.893,0.43,1.305,0.671
		c0.831,0.482,1.568,1.021,2.185,1.542C169.196,81.962,169.938,82.935,169.938,82.935z"/>
	<path fill="#F4C9A2" d="M119.492,100.793c0,0-0.514-2.628,1.098-4.148c1.536-1.45,3.839-0.418,3.839-0.418
		S120.137,95.441,119.492,100.793z"/>
	<path fill="#F4C9A2" d="M127.452,124.788c0,0,2.688-1.266,4.587-0.821c2.458,0.575,3.037,3.06,3.037,3.06s-1.528-1.383-3.346-1.906
		C130.142,124.659,127.452,124.788,127.452,124.788z"/>
	<path fill="#F4C9A2" d="M129.482,118.481c-0.113,0.241,2.663,2.774,3.371,2.961c0.708,0.186,4.454-0.641,4.535-0.933
		C137.47,120.219,129.763,117.882,129.482,118.481z"/>
	<path fill="#F4C9A2" d="M103.667,154.102c-0.889-0.059-2.067-0.362-3.007-0.208c-1.016,2.013-1.898,3.857-2.638,5.524
		c1.104-0.007,3.2,0.196,4.603,0.663c1.247,0.415,2.679,1.203,3.611,1.848c0.576-1.425,1.233-3.012,1.965-4.718
		C106.85,155.817,104.646,154.167,103.667,154.102z"/>
	<path fill="#FFFFFF" d="M109.407,137.542c5.682-2.41-0.324,25.728-0.324,25.728c0.539-2.586-11.056-7.522-13.588-4.21
		C99.246,150.578,104.79,139.5,109.407,137.542z"/>
	<path fill="#F4C9A2" d="M160.958,160.832c-0.524-1.378-1.104-2.777-1.886-4.512c-2.156-0.364-5.998-1.056-6.447-0.51
		c-0.333,0.403-1.165,1.012-1.688,1.845c1.138,2.334,2.15,4.616,2.918,6.343c0,0,1.146-1.458,3.083-2.479
		C158.405,160.746,159.933,160.726,160.958,160.832z"/>
	<path fill="#FFFFFF" d="M149.292,138.84c6.472,3.295,8.811,13.905,14.042,21.679c-2-3-10.75-1.292-11.188,4.25
		c-1.969-3.438-4.531-9.765-4.531-9.765S144.461,136.382,149.292,138.84z"/>
	<g>
		<path fill="#C90000" d="M128.188,138.769c0,0-1.188-2.208-5.812-4.083c-3.216-1.304-7.428-1.878-16.375-0.334
			c-5.751,0.992-10.25-0.25-16.75,2.25s-17.291,10.167-28.083,16.417s-26.64,2.92-38,1.001C7.625,151.394,0,163.853,0,163.853
			s13.627-5.01,28.625-1.459c25.875,6.125,42.376-4.958,48.209-10.958s11.167-10.583,17.5-12.5s12.751-0.997,16.667-1.832
			s6.165-1.835,8.791,0.79c3.208,3.208,7.167,3.375,7.167,3.375S128.427,139.268,128.188,138.769z"/>
		<path fill="#C90000" d="M133.469,139.237c0,0,1.698-2.594,4.125-3.5c1.223-0.457,4.719-0.906,7.562-0.188s6.906,2.531,7.906,4.031
			s0.562,2.969,0.562,2.969s-1.354-1.448-2.75-2.031c-2.002-0.836-5.208-0.994-7.312-0.188c-4.188,1.604-7.438,1.125-8.25,1.812
			S133.469,139.237,133.469,139.237z"/>
		<path opacity="0.5" fill="#910000" d="M126.422,136.94c-0.085,0.042-0.628,0.483-0.938,1.359
			c-0.281,0.797,0.062,1.391,0.062,1.391s-0.905-0.184-1.469-0.172c-0.781,0.016-1.75,0.297-1.75,0.297
			c0.222,0.114,0.814,0.41,1.029,0.504c1.073-0.265,1.988-0.189,2.563-0.074c-0.047-0.461-0.027-0.885,0.111-1.195
			c0.415-0.934,0.855-1.202,1.312-1.31C127.206,137.604,126.601,137.096,126.422,136.94z"/>
		<path opacity="0.5" fill="#910000" d="M133.906,138.675l-0.27,0.324c0.579,0.23,1.125,0.597,1.085,1.477
			c0.453,0.313,1.051,0.771,1.654,1.317l0.562-0.071c0,0-0.906-0.844-2.016-1.281C135,139.378,133.906,138.675,133.906,138.675z"/>
		<g>
			<path fill="#C90000" d="M126.571,140.425c0,0-2.659-1.098-5.54,0.983c-2.115,1.527-1.531,3.027-4.289,3.931
				c-1.717,0.562-3.576,0.722-6.118-0.237c0.792,1.292,3.057,3.994,6.542,4.084c3.485,0.089,5.875-0.5,7.975-3.4
				c1.43-1.976,2.942-1.642,2.942-1.642L126.571,140.425z"/>
			<path opacity="0.5" fill="#910000" d="M127,140.034c-0.024,0.011-0.938-0.016-0.938-0.016s-0.578,0.656-0.156,2.125
				c0.211,0.734,0.844,1.859,1.922,2.016c0.084,0.013,1.345-0.172,1.406-0.109c0.597-0.193-1.151,0.094-1.151,0.094l-1.513-3.719
				C126.571,140.425,127.617,140.118,127,140.034z"/>
			<path fill="#C90000" d="M131,143.769c0,0,2.556,0.662,2.09,3.425s-0.702,5.096,1.035,6.908s6.917,1,6.917,1
				s-3.693-3.259-2.292-7.625c1.083-3.375-2.925-6.269-4.333-7.208C133.008,139.33,131,143.769,131,143.769z"/>
			<path opacity="0.5" fill="#910000" d="M131.812,144.394c0,0,1.234,0.453,2.016-0.969c1.827-3.325,0.328-3.188,0.328-3.188
				L131.812,144.394z"/>
			<path fill="#C90000" d="M130.199,138.649c1.176,0.4,2.488-0.006,3.332,0.307s1.704,0.855,0.843,2.813
				c-0.86,1.958-1.592,2.991-2.754,2.862c-1.162-0.13-1.679-0.345-2.583-0.259c-0.904,0.087-1.549-0.215-2.001-0.839
				s-1.521-3.322-1.004-4.484c0.517-1.162,1.072-1.298,1.65-1.369C128.75,137.55,129.023,138.249,130.199,138.649z"/>
		</g>
	</g>
	<path fill="#FFFFFF" d="M138.688,104.631c7.468,2.489,8.837-0.545,12.067,2.123s-3.25,12-11.25,11.25
		c-7.021-0.658-11.759-3.514-13.625-5.25c-5.375-5-4.007-13.141-0.125-14.25C130.13,97.254,131.219,102.142,138.688,104.631z"/>
	<path fill="#F4C9A2" d="M67.631,93.566"/>
	<path fill="#F4C9A2" d="M73.122,82.635"/>
	<path fill="#F4C9A2" d="M82.417,95.936C80.25,93.727,78.599,89.384,80,85.52c1.208-3.334,3.667-3.793,5.375-2.959
		c-2.75,1.083-3.458,2.666-3.938,4.396C80.663,89.75,81.25,92.352,82.417,95.936z"/>
	<path fill="#F4C9A2" d="M174.552,101.568c0,0,2.662,1.694,1.029,5.446c-0.867,1.992-3.699,3.053-3.699,3.053
		s1.998-1.682,2.847-3.582C175.854,103.964,174.552,101.568,174.552,101.568z"/>
	<g>
		<path fill="#404041" d="M72.858,62.099c-0.001,0.014-0.003,0.026-0.003,0.04C72.844,62.151,72.844,62.136,72.858,62.099z"/>
		<path fill="#404041" d="M86.11,93.799c-0.482-0.248-1.698-4.467-1.081-8.33c-0.738,0.143-1.213,1.344-1.213,1.344
			c-0.408-9.479,0.355-25.309,0.355-25.309s-7.084,2.584-9.834,9.667c-0.781-3.461,1.502-12.759,2.58-15.388
			c-1.095,0.456-3.86,5.779-4.06,6.315c0.79-11.349,8.869-18.888,11.538-22.224c-1.826,1.92-4.354,4.43-5.662,5.1
			c1.784-9.232,7.326-12.785,7.326-12.785s-2.252-8.627-0.028-11.885c2.086,5.283,4.273,4.535,4.273,4.535s1.884-3.258,4.28-5.123
			c2.4-1.865,7.93-3.424,7.93-3.424s-6.833-2.508-7.83-5.461c6.134,2.064,25.959,5.308,25.201,0.24
			C119.13,6.004,111.236,0,111.236,0s22.394,5.379,30.124,13.982c1.145-3.479-4.766-13.652-4.766-13.652s9.785,5.924,16.706,16.145
			c-0.171-4.596-5.882-12.025-5.882-12.025s15.211,9.305,23.336,25.722c1.001-1.876,0.5-4.917,0.5-4.917s8.204,10.528,11.417,26.75
			c3.334,16.834,0,40-7.833,52.417c0.25-2.917-0.334-5.417-0.334-5.417c-0.29,1.657-3.062,5.334-4,6.834
			c1.212-8.426,2.772-34.21-5.375-36.709c-2.559,1.005,1,6.625,1,6.625s-8.036-4.404-12-12.125c-0.964,4.779,2.375,9.75,2.375,9.75
			s-8.875-4.125-15.821-13.904c0,0-12.178,9.195-31.846,10.195c8.167-5,5.667-11.832,5.667-11.832s-5.917,2.5-7.968,5.688
			c-0.467-1.744,1.414-4.924,1.414-4.924S93.326,74.51,89.227,90.41c-0.701-1.818-0.555-4.072-0.555-4.072
			C87.9,87.25,86.445,90.4,86.11,93.799z"/>
	</g>
</g>
</svg>
