<?xml version="1.0" encoding="utf-8"?>
<!-- Generator: Adobe Illustrator 16.0.0, SVG Export Plug-In . SVG Version: 6.00 Build 0)  -->
<!DOCTYPE svg PUBLIC "-//W3C//DTD SVG 1.1//EN" "http://www.w3.org/Graphics/SVG/1.1/DTD/svg11.dtd">
<svg version="1.1" xmlns="http://www.w3.org/2000/svg" xmlns:xlink="http://www.w3.org/1999/xlink" x="0px" y="0px"
	 width="268.726px" height="249.396px" viewBox="0 0 268.726 249.396" enable-background="new 0 0 268.726 249.396"
	 xml:space="preserve">
<g id="Layer_3" display="none">
	<g display="inline">
		<path fill="#A6A8AB" d="M141.984-35.519c0,0-2.425,1.264-2.706,1.967c-0.28,0.705-2.238,5.894,5.365,17.502
			c7.603,11.607,14.788,18.426,21.646,15.598c1.73-1.096-13.184-21.292-13.184-21.292L141.984-35.519z"/>
		<path fill="#C1B49A" d="M167.129-17.943c0.838,4.882,2.528,7.332,6.34,8.926c0,0-0.983,4.846-6.156,8.077
			c-6.145,3.671-12.9-3.506-20.06-13.63c-5.703-8.062-8.432-17.396-7.046-19.363c3.005-4.264,13.554-4.155,16.754-0.081
			C160.569-29.424,161.432-18.796,167.129-17.943z"/>
	</g>
</g>
<g id="Layer_8">
	<path fill="#F9E8F1" d="M83.179,118.269c0,0-5.419,1.274-7.393,6.501c-1.974,5.225-1.819,26.859-1.664,31.194
		c0.154,4.336,6.966,25.234,8.359,28.797l5.883-1.549l-6.656-27.866l1.044-24.19c0,0,0.503,4.53,1.432,11.883
		c1.026,8.117,8.902-3.639,8.902-3.639l1.161-14.863L83.179,118.269z"/>
	<path fill="#F9E8F1" d="M118.017,118.331c0,0,5.418,1.276,7.393,6.501c1.974,5.226,11.733,24.651,11.733,24.651l-7.75,3.875
		l-10.951-22.141c0,0-0.503,4.53-1.432,11.884c-1.026,8.116-8.902-3.639-8.902-3.639l-1.161-14.862L118.017,118.331z"/>
	<path opacity="0.3" fill="#E8CADC" d="M117.507,139.116c0.61-4.967,0.936-7.898,0.936-7.898l1.097,2.219c0,0-0.75-1.683-1.188-3.37
		c-1.25,4.334-1.552,7.323-1.552,7.323L117.507,139.116z"/>
	<path fill="#231F20" d="M215.179,223.827c0,0,0.078,2.406,0.991,4.337c1.196,2.528,4.231,4.69,4.985,6.341
		c0.535,1.176-0.364,3.806-2.267,3.985c-1.902,0.183-10.111-3.704-11.289-6.06c-1.177-2.355-0.812-8.594-0.812-8.594
		C206.835,222.797,214.794,222.025,215.179,223.827z"/>
	<path fill="#231F20" d="M194.987,223.89c0,0-0.078,2.406-0.991,4.337c-1.195,2.528-4.23,4.69-4.985,6.341
		c-0.535,1.176,0.364,3.806,2.267,3.985c1.902,0.183,10.111-3.704,11.29-6.06c1.176-2.355,0.812-8.594,0.812-8.594
		C203.331,222.859,195.372,222.088,194.987,223.89z"/>
	<path fill="#EF7DAC" d="M109.051,233.951c0,0-0.177,2.582-1.278,4.935c-1.185,2.532-2.627,4.477-2.709,6.289
		c-0.077,1.701,0.974,4.877,4.413,4.102c3.096-0.696,5.75-4.377,6.928-6.734c1.177-2.354,0.813-8.592,0.813-8.592
		C116.734,233.03,110.031,233.171,109.051,233.951z"/>
	<path fill="#EF7DAC" d="M91.654,233.951c0,0,0.177,2.582,1.278,4.935c1.185,2.532,2.627,4.477,2.709,6.289
		c0.077,1.701-0.974,4.877-4.413,4.102c-3.096-0.696-5.75-4.377-6.928-6.734c-1.177-2.354-0.813-8.592-0.813-8.592
		C83.971,233.03,90.674,233.171,91.654,233.951z"/>
	<polygon fill="#FFE6E1" points="214.704,192.254 207.463,192.254 207.487,225.358 214.674,225.39 	"/>
	<rect x="195.702" y="192.857" fill="#FFE6E1" width="7.24" height="32.257"/>
	<path fill="#404041" d="M194.987,223.89c0,0-0.078,2.406-0.991,4.337c-1.195,2.528-4.23,4.69-4.985,6.341
		c-0.535,1.176,0.364,3.806,2.267,3.985c1.902,0.183,10.111-3.704,11.29-6.06c1.176-2.355,0.812-8.594,0.812-8.594
		C203.185,225.442,195.352,225.255,194.987,223.89z"/>
	<path fill="#D13359" d="M221.308,181.598c0,0,0.681,6.071,7.252,20.469c-19.5,9.667-43.425,1.604-46-0.333
		c6.333-15.834,5.481-20.268,5.481-20.268C205.246,185.275,221.308,181.598,221.308,181.598z"/>
	<path fill="#F9E8F1" d="M105.395,107.662l-10.837-0.153l0.155,9.754c0,0-6.628,0.461-7.818,0.541
		c-0.959,0.227,3.638,15.945,3.638,15.945c1.42,0.777,7.19,3.275,9.056,3.405c2.887,0.2,9.113-2.063,12.191-3.908l3.046-15.506
		l-9.315-0.75L105.395,107.662z"/>
	<rect x="109.395" y="197.079" fill="#F9E8F1" width="7.238" height="37.726"/>
	<rect x="83.932" y="197.552" fill="#F9E8F1" width="7.239" height="37.729"/>
	<path fill="#FF92B9" d="M91.654,233.951c0,0,0.177,2.582,1.278,4.935c1.185,2.532,2.627,4.477,2.709,6.289
		c0.077,1.701-0.974,4.877-4.413,4.102c-3.096-0.696-5.75-4.377-6.928-6.734c-1.177-2.354-0.813-8.592-0.813-8.592
		C83.956,234.89,90.737,235.14,91.654,233.951z"/>
	<path opacity="0.3" fill="#E8CADC" d="M105.471,113.296l-0.076-5.634l-10.837-0.153l0.101,6.1c1.109,0.719,3.116,1.179,5.359,1.125
		C102.612,114.671,104.143,114.202,105.471,113.296z"/>
	<path fill="#E56F33" d="M151.065,24.994c10.755-1.512,35.932,10.142,33.2,45.678c-2.158,27.625-17.841,37.983-12.374,58.125
		c5.467,20.145,19.04,29.438,30.262,35.373c-14.872-4.604-37.6-15.086-43.211-38.826c-5.611-23.737,22.443-39.42,18.416-64.453
		c-4.028-25.034-17.481-31.148-24.135-30.178L151.065,24.994z"/>
	<path fill="#E56F33" d="M50.428,23.699c-13.702-1.965-34.199,17.179-34.035,41.534s17.25,37,13.209,62.271
		c-3.177,19.87-17.696,30.103-29.603,37.55c9.727-2.987,13.977-5.987,13.977-5.987s-0.75,3.75-13.724,9.872
		c16.39-1.955,39.365-20.262,42.298-44.889c3.342-28.066-21.36-41.475-18.415-64.455C26.393,41.983,38.643,28.65,48.27,29.417
		L50.428,23.699z"/>
	<path fill="#FF92B9" d="M58.736,21.971c0,0-7.285-3.809-10.358,3.023c-3.884,8.633,4.331,11.134,4.331,11.134L58.736,21.971z"/>
	<path fill="#FF92B9" d="M144.859,22.684c0,0,5.176-4.336,8.787,2.229c4.436,8.064-4.485,10.079-4.485,10.079L144.859,22.684z"/>
	<path fill="#E56F33" d="M102.691,0.032c-53.524-1.491-60.248,49.184-51.35,74.423c32.572-11.926,87.944-18.439,95.647-0.163
		C153.363,62.91,165.651,0.347,102.691,0.032z"/>
	<path fill="#F9E8F1" d="M50.5,64.325c0.788,30.488,29.681,46.739,46.768,47.207c16.952,0.465,42.96-9.754,49.38-34.966
		c2.97-15.02-6.67-51.317-6.67-51.317s-23.377-13.3-34.672-14.337c-11.293-1.041-33.454,4.235-43.524,16.896
		C51.709,40.47,51.624,59.981,50.5,64.325z"/>
	<path fill="#E56F33" d="M51.342,74.455c35.941-3.01,60.988-37.735,60.988-37.735s10.366,30.673,34.659,37.572
		c8.052-30.011-7.102-55.762-7.102-55.762L119.329,4.475c0,0-29.68,1.234-44.005,7.071C49.555,21.024,47.818,62.122,51.342,74.455z"
		/>
	<g>
		<circle fill="#FFFFFF" cx="77.954" cy="82.714" r="7.511"/>
		<circle fill="#404041" cx="77.919" cy="84.209" r="3.426"/>
	</g>
	<g>
		<circle fill="#FFFFFF" cx="124.399" cy="82.715" r="7.511"/>
		<circle fill="#404041" cx="124.489" cy="84.21" r="3.426"/>
	</g>
	<path fill="#FFFFFF" d="M90.688,99.226c2.127-2.168,6.038,0.154,8.825,0.154s5.963-2.322,8.669-0.31
		c2.707,2.013-1.159,8.205-8.698,7.896C91.946,106.657,88.562,101.393,90.688,99.226z"/>
	<path fill="#E56F33" d="M69.168,73.708c0,0,2.6-3.929,7.122-4.472c5.109-0.613,7.895,3.252,7.895,3.252s-3.543-2.343-7.875-1.742
		C72.768,71.237,69.168,73.708,69.168,73.708z"/>
	<path fill="#E56F33" d="M132.177,73.771c0,0-2.03-3.831-7.159-4.572c-5.093-0.736-7.857,3.354-7.857,3.354s4.068-2.466,7.94-1.905
		C128.159,71.089,129.727,72,132.177,73.771z"/>
	<path fill="#A5E5EF" d="M83.179,118.269c0.852-0.233,3.715-0.465,3.715-0.465s1.838,4.529,4.554,14.799
		c7.734,2.849,18.629,0.624,18.9,0.141c1.315-7.335,4.477-15.003,4.477-15.003s2.094,0.165,3.225,0.586
		c-2.845,10.392-1.975,17.241-1.975,17.241c2.709,3.755,16.72,40.059,19.275,71.641c-26.958,5.692-39.71,4.645-68.982-0.14
		c4.192-34.694,15.803-65.27,18.474-71.151C85.191,134.832,84.998,125.545,83.179,118.269z"/>
	<path fill="#5FA3AA" d="M78.893,180.103c0,0,5.094-0.932,14.911,0c0,0,2.955,13.293-7.244,13.575
		C76.361,193.959,78.893,180.103,78.893,180.103z"/>
	<path fill="#FFE6E1" d="M178.268,160.858l3.66,6.851c0,0-23.746,11.173-27.931,12.19l-1.815-5.805
		C157.127,172.108,178.268,160.858,178.268,160.858z"/>
	<path opacity="0.3" fill="#EACBC5" d="M157.331,174.941c-0.792-1.5-1.438-2.166-1.87-2.349c-0.689,0.348-1.313,0.648-1.868,0.903
		c-0.306,0.29-0.545,0.546-0.554,0.651c-0.025,0.312,0.195,1.178,0.342,1.838s0.614,1.232,0.983,1.911
		c0.23,0.42,0.894,1.06,1.419,1.478c0.669-0.27,2.443-0.995,2.443-0.995S158.349,176.871,157.331,174.941z"/>
	<path fill="#F9E8F1" d="M137.143,149.483l-7.75,3.875c0,0,11.262,15.695,14.697,19.391l6.053-4.141
		C146.48,164.721,137.143,149.483,137.143,149.483z"/>
	<path fill="#F9E8F1" d="M150.143,168.608c0,0,1.6,2.038,2.212,2.447c1.264,0.843,2.904,1.626,4.004,3.559
		c0.964,1.695,1.692,2.794,0.749,4.824c-0.86,1.853-7.034,5.44-8.245,2.506c-0.603-1.458-0.571-2.736-2.227-4.046
		c-0.621-0.488-1.244-0.151-1.652-0.597c-0.698-0.765-1.347-1.658-1.314-2.61c0.04-1.151,0.421-1.942,0.421-1.942L150.143,168.608z"
		/>
	<path opacity="0.3" fill="#E8CADC" d="M149.828,181.092c0.149-0.08,0.297-0.159,0.436-0.234c0.711-0.384,0.016-1.972-1.05-1.362
		c0,0-0.096,0.042-0.243,0.108c0.055-0.03,0.103-0.055,0.159-0.085c0.711-0.386,0.015-1.972-1.053-1.364
		c0,0-0.224,0.102-0.524,0.248c0.116-0.063,0.233-0.127,0.369-0.201c0.71-0.385,0.016-1.975-1.051-1.366c0,0-0.688,0.51-1.327,0.908
		c0.342,0.058,0.696-0.157,1.092,0.155c1.655,1.31,1.624,2.588,2.227,4.046c0.19,0.462,0.228,0.705,0.624,0.876
		c0.291-0.076,0.688-0.227,1.04-0.419C151.182,182.049,150.745,180.811,149.828,181.092z"/>
	<path fill="#FFE6E1" d="M146.783,177.029c0,0-0.756,0.339-1.386,0.749c-0.595,0.387,0.104,1.705,0.877,1.372
		c0.482-0.209,0.855-0.438,1.51-0.802C148.467,177.973,147.81,176.432,146.783,177.029z"/>
	<path fill="#FFE6E1" d="M147.932,178.305c0,0-0.991,0.457-1.622,0.867c-0.595,0.386,0.104,1.706,0.876,1.37
		c0.483-0.207,1.091-0.556,1.747-0.918C149.616,179.246,148.958,177.708,147.932,178.305z"/>
	<path fill="#FFE6E1" d="M149.014,179.6c0,0-1.213,0.546-1.845,0.955c-0.593,0.388,0.105,1.706,0.878,1.371
		c0.484-0.208,1.312-0.645,1.965-1.007C150.696,180.543,150.038,179.003,149.014,179.6z"/>
	<path fill="#FFE6E1" d="M149.366,181.231c0,0-0.637,0.278-1.268,0.688c-0.593,0.387,0.047,1.587,0.819,1.252
		c0.482-0.208,0.738-0.377,1.393-0.742C150.993,182.054,150.393,180.634,149.366,181.231z"/>
	<path fill="#FFE6E1" d="M211.023,145.022l-10.354,0.076l-0.096,5.033c0,0-2.458-0.038-3.648,0.047
		c-0.959,0.233,2.828,12.767,2.828,12.767c1.425,0.768,3.537,1.727,5.403,1.847c2.886,0.183,4.645,0.025,7.711-1.838l2.297-12.765
		l-3.91-0.232L211.023,145.022z"/>
	<path fill="#FFE6E1" d="M198.756,179.156"/>
	<path fill="#404041" d="M268.726,127.067c-3.833-7.833-3.39-13.442-3.202-18.591c1.536-42.242-18.955-65.819-61.285-65.167
		c-38.346,0.591-53.712,31.7-53.936,66.866c-0.032,5.024-0.078,12.808-3.411,16.808
		C156.026,140.916,253.556,142.239,268.726,127.067z"/>
	<path fill="#FFE6E1" d="M229.321,159.676l-4.777,5.44c0,0,19.254,17.29,23.087,19.253l3.12-5.223
		C246.299,176.188,229.321,159.676,229.321,159.676z"/>
	<path opacity="0.3" fill="#EACBC5" d="M201.24,145.096c-0.211,0.286-0.41,0.569-0.588,0.847l-0.041,2.182
		c0.948,0.526,2.5,1.175,5.156,1.235c2.281,0.052,4.25-0.459,5.375-1.292l-0.12-3.045L201.24,145.096z"/>
	<path fill="#FFE6E1" d="M256.653,102.556c0.71,25.128-24.195,44.08-50.332,44.038c-26.138-0.042-48.838-15.626-49.546-40.754
		c-0.711-25.128,22.239-49.413,48.366-50.152C231.266,54.951,255.944,77.429,256.653,102.556z"/>
	<path fill="#404041" d="M156.227,118.9c13.756-14.931,29.546-18.356,44.568-19.468l1.999-17.386l2.608,17.189
		c2.072-0.023,4.118,0.036,6.143,0.168l4.478-18.352l1.516,18.953l7.956,1.425l5.564-17.086l-0.661,18.301
		c17.564,4.806,31.162,17.588,31.162,17.588s-7.038-39.985-9.327-44.258c-2.288-4.273-14.103-20.136-19.579-22.146
		c-5.475-2.014-17.977-5.267-26.761-3.262C144.521,64.583,153.171,116.197,156.227,118.9z"/>
	<path fill="#FFE6E1" d="M250.75,179.146c0,0,2.516,0.584,5.583,0.015c3.068-0.573,4.602-0.854,6.518-0.761
		c3.158,0.152,2.604,1.514,0.393,2.134c-2.21,0.619-8.617,1.533-8.586,3.489c0.023,1.563,1.964,1.616,3.562,2.845
		c1.015,0.777,0.248,2.744-1.834,1.522c-2.766-1.358-3.465-1.385-5.526-2.317c-1.604-0.722-3.229-1.704-3.229-1.704L250.75,179.146z
		"/>
	<path fill="#FFFFFF" d="M198.155,133.103c1.841-2.514,5.298-0.387,7.709-0.387c2.411,0,5.089-2.127,7.433,0.206
		c2.34,2.335-1.005,9.517-7.53,9.158C199.246,141.721,196.317,135.617,198.155,133.103z"/>
	<g>
		<circle fill="#FFFFFF" cx="183.455" cy="121.082" r="7.511"/>
		<circle fill="#404041" cx="183.474" cy="122.852" r="3.427"/>
	</g>
	<path fill="#404041" d="M175.213,113.435c0,0,1.995-3.654,6.662-4.281c4.87-0.654,7.669,3.062,7.669,3.062
		s-3.949-2.084-7.222-1.843C178.506,110.653,175.213,113.435,175.213,113.435z"/>
	<g>
		<circle fill="#FFFFFF" cx="229.899" cy="121.081" r="7.51"/>
		<circle fill="#404041" cx="229.954" cy="122.642" r="3.426"/>
	</g>
	<path fill="#F9E8F1" d="M75.787,124.77c-1.974,5.225-1.819,26.859-1.664,31.194c0.154,4.336,6.966,25.234,8.359,28.797l6.411-1.902
		l-6.917-27.375l0.776-24.328C82.753,131.155,77.76,119.543,75.787,124.77z"/>
	<path fill="#71BBBF" d="M78.893,180.103c0,0,8.188,1.881,14.911,0c0,0,2.955,13.293-7.244,13.575
		C76.361,193.959,78.893,180.103,78.893,180.103z"/>
	<path fill="#5FA3AA" d="M108.643,180.228c0,0,4.917-0.368,14.911,0c0,0,2.955,13.293-7.244,13.575
		C106.111,194.084,108.643,180.228,108.643,180.228z"/>
	<path fill="#71BBBF" d="M108.643,180.228c0,0,7.417,0.632,14.911,0c0,0,2.955,13.293-7.244,13.575
		C106.111,194.084,108.643,180.228,108.643,180.228z"/>
	<path opacity="0.3" fill="#E8CADC" d="M103.143,107.9c0,0-1.635,1.853-4.406,1.458c-2.092-0.3-2.844-1.541-2.844-1.541
		S99.193,110.031,103.143,107.9z"/>
	<path opacity="0.3" fill="#EACBC5" d="M209.263,143.05c0,0-1.159,1.686-3.641,1.514c-2.177-0.151-2.958-1.591-2.958-1.591
		S205.775,145.276,209.263,143.05z"/>
	<path opacity="0.4" fill="#B22F54" d="M223.319,189.085c-1.747-5.162-2.011-7.487-2.011-7.487s-16.062,3.678-33.266-0.132
		c0,0,0.352,1.854-1.101,7.425C192.948,190.688,207.168,193.763,223.319,189.085z"/>
	<path fill="#F47D8F" d="M224.434,152.995c7.449,4.063,8.602,6.55,16.335,13.517c-1.001,2.787-5.241,7.612-8.438,8.312
		c-4.595-1.619-8.903-7.663-8.903-7.663s2.091,6.822,3.341,19.822c-22.875,8.125-42.875-0.125-42.875-0.125
		c0.417-11.125,3.936-20.935,3.936-20.935s-6.913,6.232-8.795,6.85c-3.308,0.406-8.707-7.315-9.635-10.258
		c7.893-3.097,9.859-6.532,17.182-9.945c3.405-1.587,10.345-2.392,10.345-2.392s1.748,5.221,7.602,6.04c0,0-0.322,2.14,1.428,4.452
		c1.531-2.125,1.562-4.427,1.562-4.427c5.992-0.731,7.646-6.055,7.646-6.055S220.562,150.884,224.434,152.995z"/>
	<path fill="#FF92B9" d="M109.051,233.951c0,0-0.177,2.582-1.278,4.935c-1.185,2.532-2.627,4.477-2.709,6.289
		c-0.077,1.701,0.974,4.877,4.413,4.102c3.096-0.696,5.75-4.377,6.928-6.734c1.177-2.354,0.813-8.592,0.813-8.592
		C116.75,234.89,109.968,235.14,109.051,233.951z"/>
	<path fill="#404041" d="M215.179,223.827c0,0,0.078,2.406,0.991,4.337c1.196,2.528,4.231,4.69,4.985,6.341
		c0.535,1.176-0.364,3.806-2.267,3.985c-1.902,0.183-10.111-3.704-11.289-6.06c-1.177-2.355-0.812-8.594-0.812-8.594
		C206.982,225.38,214.814,225.192,215.179,223.827z"/>
	<path fill="#404041" d="M238.08,113.519c0,0-1.916-3.696-6.568-4.424c-4.854-0.759-7.733,2.896-7.733,2.896
		s3.993-1.998,7.261-1.687C234.847,110.668,238.08,113.519,238.08,113.519z"/>
	<path opacity="0.3" fill="#E8CADC" d="M82.471,139.124c0.156-2.938,0.282-7.969,0.282-7.969s0.179,1.855,0.89,7.594l0.594-1.484
		c0,0-0.25-2.094-1.562-7.141C82.518,133.14,82.393,134.843,82.471,139.124z"/>
</g>
<g id="Layer_4" display="none">
	<rect x="-35.107" y="-243.767" display="inline" fill="#61C7FF" width="526" height="516"/>
</g>
<g id="Layer_7" display="none">
	<path display="inline" fill="#FED7AF" d="M155.643,265.233c-1-12-2.5-22.767-2.5-22.767l-11,1c0,0,1.125,8.642,2.375,21.767
		H155.643z"/>
	<path display="inline" fill="#F4C9A2" d="M143.798,257.646c0,0,2.949-0.787,5.928-0.912s5.191,0.351,5.191,0.351
		c-0.24-2.299-0.479-4.433-0.7-6.312c-3.32-0.858-10.226-2.104-10.825-1.705c-0.109,0.072-0.291,0.155-0.512,0.247
		C143.137,251.517,143.451,254.331,143.798,257.646z"/>
	<path display="inline" fill="#4575BA" d="M110.893,257.733c0.661,2.938,19.473,2.844,19.583,0
		c0.073-1.857-7.074-10.994-7.074-10.994S111.719,254.733,110.893,257.733z"/>
	<path display="inline" fill="#FED7AF" d="M114.56,265.233c-0.214-12.357,1.844-21.643,1.844-21.643l11.489,0.643
		c0,0-1.667,6.833-2.333,21H114.56z"/>
	<path display="inline" fill="#F4C9A2" d="M114.816,257.053c0,0,2.608-0.349,5.577-0.318s5.682,0.598,5.682,0.598
		c0.196-2.145,0.407-4.039,0.615-5.67c-2.781-1.218-7.878-2.853-9.296-2.595c-0.464,0.084-1.143,0.266-1.894,0.507
		C115.245,251.662,114.991,254.205,114.816,257.053z"/>
	<path display="inline" fill="#6697EA" d="M116.018,227.358c-2.938,11.938-1.749,18-5.125,30.375c1.064-3.969,19.179-2.406,19.583,0
		c0.66-4.125,5.75-14,5.75-14s1.942,11.442,4.678,14.046c-0.383-3.207,16.939-3.75,18.401-1.332
		c-1.95-6.418-0.871-15.63-5.913-29.339C153.393,227.108,117.917,223.772,116.018,227.358z"/>
	<path display="inline" opacity="0.3" fill="#4575BA" d="M154.581,230.483c-0.416-1.389-0.638-1.881-1.188-3.375
		c0,0-35.476-3.336-37.375,0.25c-0.338,1.375-0.57,2.324-0.812,3.562c0,0,11.687,1.328,20.271,1.479
		C144.893,232.566,154.581,230.483,154.581,230.483z"/>
	<polygon display="inline" fill="#FED7AF" points="129.133,180.678 128.213,195.221 141.28,195.969 140.842,180.761 	"/>
	<path display="inline" fill="#F4C9A2" d="M140.842,180.761l-11.709-0.083l-0.487,7.707c0.676,0.395,1.185,0.661,1.185,0.661
		l1.562-3.75c0,0,2.685,1.098,5.062,1.125c1.812,0.021,3.146-0.312,4.523-0.911L140.842,180.761z"/>
	<path display="inline" fill="#910000" d="M5.727,214.233c22.083-4,29.667,9,43.167,10.75s22.5-8.75,34.5-8.25
		s19.761,8.867,26.333,10c7.25,1.25,16.75-2.75,17.5-7c1.151-6.521,10.167-6.25,10.167-6.25l-10-25.563
		c0,0-21.667-0.48-26.833,0.289c-5.166,0.771-9.018,4.402-14.166,8.087C57.143,217.233,20.81,204.9,5.727,214.233z"/>
	<path display="inline" fill="#A6A8AB" d="M156.039,216.483c2.125,3.375,11.688-0.312,11.188-4.25
		c-2.592-3.848-8.266-6.447-8.266-6.447S154.751,213.9,156.039,216.483z"/>
	<path display="inline" fill="#A6A8AB" d="M99.389,210.774c-0.584,3.615,12.71,6.91,13.588,4.21
		c0.413-1.747-1.581-8.675-1.684-9.041C111.188,205.575,100.736,208.096,99.389,210.774z"/>
	<path display="inline" fill="#404041" d="M82.065,111.219c0,0-1.919,7.103-1,17.666c1.666,19.167,12.5,30.334,21.333,33.5
		c8.833,3.167,5.667-1.333,5.667-1.333l0.333-34.333c0,0-0.167-9.334-1.333-10.834c-1.167-1.5-11.5-10.166-12.667-10.166
		S82.065,111.219,82.065,111.219z"/>
	<path display="inline" fill="#FED7AF" d="M179.898,137.219c-1.147,26.002-21.458,48.662-46.25,45.75
		c-26.25-3.083-41.75-19.224-41.75-45.25s7-52.5,46.375-48C181.113,94.615,180.648,120.219,179.898,137.219z"/>
	<path display="inline" fill="#FED7AF" d="M93.231,136.219c0,0-1.333-6.834-7.5-6.5c-3.684,0.199-7.166,5.333-5.5,12.166
		c1.667,6.834,6.137,12.322,11.5,12.668c5.167,0.332,6.834-1.834,6.834-1.834s-1-9.666-1.167-10.166S93.231,136.219,93.231,136.219z
		"/>
	<path display="inline" fill="#FED7AF" d="M176.648,151.553c0,0,1.252-2.25,2.917-1.834c3.666,0.917,3.084,7.584,0.25,11.584
		s-7.015,3.724-8.693,2.681C168.701,162.478,176.648,151.553,176.648,151.553z"/>
	<g display="inline">
		<circle fill="#FFFFFF" cx="127.035" cy="130.363" r="7.014"/>
		<path fill="#404041" d="M132.105,130c-0.088,1.764-1.59,3.123-3.354,3.036c-1.763-0.087-3.124-1.589-3.04-3.354
			c0.088-1.766,1.593-3.125,3.355-3.038C130.832,126.732,132.192,128.233,132.105,130z"/>
	</g>
	<g display="inline">
		<circle fill="#FFFFFF" cx="163.869" cy="139.446" r="7.014"/>
		<path fill="#404041" d="M168.938,139.083c-0.088,1.764-1.59,3.124-3.354,3.037c-1.763-0.088-3.124-1.589-3.04-3.354
			c0.088-1.766,1.593-3.125,3.355-3.039C167.665,135.816,169.025,137.317,168.938,139.083z"/>
	</g>
	<path display="inline" fill="#F1F1F2" d="M113.3,189.257c5.682-2.41,15.343-1.461,15.343-1.461s1.272,3.542,5.75,3.625
		c5.653,0.105,6.666-3.452,6.666-3.452s7.296,0.128,12.126,2.586c6.472,3.295,8.811,13.905,14.042,21.679
		c-2-3-10.75-1.292-11.188,4.25c-1.969-3.438-4.531-9.765-4.531-9.765s1.258,5.727,3.885,22.849
		c-12.769,2.003-22.637,2.08-41.333,0.083c1.852-12.414,0.181-13.304,2.149-23.682c-1.234,3.265-3.232,9.016-3.232,9.016
		c0.539-2.586-11.056-7.522-13.588-4.21C103.139,202.293,108.683,191.215,113.3,189.257z"/>
	<path display="inline" fill="#FED7AF" d="M114.393,203.734c-4.125,9-6.875,16.665-6.875,16.665s0.338,3.611,6.776,12.099
		l-4.663,5.474c-4.412-4.343-10.794-13.943-10.655-17.489c0.139-3.542,3.083-10.497,8.75-20.915L114.393,203.734z"/>
	<path display="inline" fill="#FED7AF" d="M113.586,231.566c0.905,0.854,2.938,0.619,4.771,0.639
		c3.718,0.028,5.103,0.725,6.57,1.467c1.529,0.776,1.019,2.91-0.684,2.363c-1.689-0.543-5.064-2.093-5.486-0.947
		c-0.123,0.332,1.356,0.807,2.898,1.478c1.051,0.46,2.113,0.969,2.92,1.559c1.32,0.964,0.535,3.067-1.36,2.101
		c-0.814-0.415-1.676-1.023-2.652-1.492c-1.502-0.722-3.061-1.12-3.295-0.366c-0.18,0.578,1.334,1.19,2.804,2.028
		c0.837,0.48,1.629,1.034,2.199,1.665c0.846,0.938-0.049,2.651-1.744,1.475c-0.577-0.401-1.144-0.78-1.75-1.188
		c-1.321-0.891-2.59-1.661-2.988-1.107c-0.408,0.564,2.067,2.402,2.873,3.336c0.932,1.08-0.323,2.595-1.582,1.477
		c-1.255-1.117-3.013-2.722-4.134-4.479c-1.123-1.755-3.315-3.601-3.315-3.601S110.872,231.986,113.586,231.566z"/>
	<path display="inline" fill="#FED7AF" d="M151.518,202.943c4.542,8.292,7.986,16.791,7.986,16.791s0.864,2.798-4.777,11.835
		l4.948,4.508c8.125-11.938,7.927-14.551,7.177-17.426c-0.706-2.705-2.792-9.582-8.458-19.583L151.518,202.943z"/>
	<path display="inline" fill="#FED7AF" d="M155.393,230.483c-0.58,1.008-2.732,1.381-4.408,1.737
		c-3.403,0.72-4.544,1.612-5.751,2.566c-1.257,0.993-0.395,2.855,1.065,2.038c1.448-0.811,4.254-2.856,4.853-1.886
		c0.174,0.282-1.093,0.991-2.382,1.894c-0.878,0.615-1.757,1.278-2.387,1.968c-1.032,1.13,0.079,2.912,1.637,1.675
		c0.669-0.531,1.346-1.249,2.153-1.86c1.244-0.941,2.598-1.596,2.953-0.948c0.273,0.497-1.003,1.338-2.193,2.381
		c-0.678,0.595-1.301,1.25-1.706,1.933c-0.603,1.019,0.537,2.422,1.872,1.029c0.454-0.475,0.904-0.928,1.383-1.413
		c1.045-1.062,2.066-2.003,2.532-1.572c0.48,0.445-1.447,2.588-2.013,3.592c-0.655,1.165,0.777,2.319,1.723,1.061
		c0.944-1.258,2.373-3.341,3.076-5.16c0.703-1.817,2.594-4.502,2.594-4.502S155.987,229.452,155.393,230.483z"/>
	<path display="inline" fill="#404041" d="M120.269,119.061c0,0,0.177-0.277,0.601-0.664c0.415-0.385,1.083-0.887,1.995-1.283
		c0.455-0.203,0.969-0.406,1.527-0.531c0.565-0.141,1.171-0.237,1.807-0.256c0.628-0.047,1.289-0.005,1.949,0.089
		c0.68,0.085,1.275,0.24,1.994,0.462l0.854,0.315c0.317,0.137,0.637,0.294,0.945,0.449c0.593,0.317,1.132,0.667,1.631,1.056
		c0.988,0.777,1.767,1.672,2.279,2.521c0.536,0.83,0.82,1.611,0.967,2.16c0.149,0.553,0.158,0.885,0.158,0.885
		s-0.939-0.914-2.345-1.935c-0.718-0.499-1.539-1.036-2.458-1.517c-0.453-0.246-0.945-0.467-1.424-0.682
		c-0.241-0.09-0.471-0.189-0.712-0.295l-0.857-0.307c-0.442-0.133-1.023-0.326-1.527-0.434c-0.517-0.131-1.035-0.229-1.541-0.296
		c-1.017-0.144-1.994-0.177-2.856-0.146C121.535,118.73,120.269,119.061,120.269,119.061z"/>
	<path display="inline" fill="#404041" d="M173.831,134.649c0,0,0.029-0.306-0.059-0.835c-0.084-0.521-0.286-1.278-0.728-2.097
		c-0.218-0.411-0.478-0.857-0.817-1.272c-0.335-0.429-0.726-0.85-1.182-1.23c-0.435-0.396-0.946-0.747-1.486-1.06
		c-0.549-0.33-1.077-0.56-1.733-0.811l-0.811-0.262c-0.312-0.083-0.638-0.151-0.954-0.215c-0.621-0.109-1.219-0.163-1.811-0.165
		c-1.175,0.001-2.264,0.211-3.132,0.539c-0.874,0.303-1.534,0.714-1.958,1.031c-0.429,0.321-0.626,0.561-0.626,0.561
		s1.219-0.131,2.842-0.07c0.816,0.048,1.73,0.127,2.684,0.304c0.476,0.08,0.965,0.203,1.442,0.32
		c0.229,0.074,0.456,0.133,0.695,0.194l0.807,0.269c0.401,0.159,0.941,0.352,1.374,0.563c0.457,0.202,0.893,0.43,1.305,0.671
		c0.831,0.482,1.568,1.021,2.185,1.542C173.089,133.677,173.831,134.649,173.831,134.649z"/>
	<path display="inline" fill="#F4C9A2" d="M123.385,152.508c0,0-0.514-2.628,1.098-4.148c1.536-1.45,3.839-0.418,3.839-0.418
		S124.03,147.156,123.385,152.508z"/>
	<path display="inline" fill="#F4C9A2" d="M131.345,176.503c0,0,2.688-1.266,4.587-0.821c2.458,0.575,3.037,3.06,3.037,3.06
		s-1.528-1.383-3.346-1.906C134.035,176.374,131.345,176.503,131.345,176.503z"/>
	<path display="inline" fill="#F4C9A2" d="M133.375,170.196c-0.113,0.241,2.663,2.774,3.371,2.961
		c0.708,0.186,4.454-0.641,4.535-0.933C141.363,171.934,133.656,169.597,133.375,170.196z"/>
	<path display="inline" fill="#F4C9A2" d="M107.56,205.816c-0.889-0.059-2.067-0.362-3.007-0.208
		c-1.016,2.013-1.898,3.857-2.638,5.524c1.104-0.007,3.2,0.196,4.603,0.663c1.247,0.415,2.679,1.203,3.611,1.848
		c0.576-1.425,1.233-3.012,1.965-4.718C110.743,207.532,108.539,205.882,107.56,205.816z"/>
	<path display="inline" fill="#F1F1F2" d="M113.3,189.257c5.682-2.41-0.324,25.728-0.324,25.728
		c0.539-2.586-11.056-7.522-13.588-4.21C103.139,202.293,108.683,191.215,113.3,189.257z"/>
	<path display="inline" fill="#F4C9A2" d="M164.852,212.547c-0.524-1.378-1.104-2.777-1.886-4.512
		c-2.156-0.364-5.998-1.056-6.447-0.51c-0.333,0.403-1.165,1.012-1.688,1.845c1.138,2.334,2.15,4.616,2.918,6.343
		c0,0,1.146-1.458,3.083-2.479C162.298,212.461,163.826,212.44,164.852,212.547z"/>
	<path display="inline" fill="#F1F1F2" d="M153.185,190.555c6.472,3.295,8.811,13.905,14.042,21.679c-2-3-10.75-1.292-11.188,4.25
		c-1.969-3.438-4.531-9.765-4.531-9.765S148.354,188.097,153.185,190.555z"/>
	<g display="inline">
		<path fill="#C90000" d="M132.081,190.483c0,0-1.188-2.208-5.812-4.083c-3.216-1.304-7.428-1.878-16.375-0.334
			c-5.751,0.992-10.25-0.25-16.75,2.25s-17.291,10.167-28.083,16.417s-26.64,2.92-38,1.001c-15.542-2.626-23.167,9.833-23.167,9.833
			s13.627-5.01,28.625-1.459c25.875,6.125,42.376-4.958,48.209-10.958s11.167-10.583,17.5-12.5s12.751-0.997,16.667-1.832
			s6.165-1.835,8.791,0.79c3.208,3.208,7.167,3.375,7.167,3.375S132.32,190.982,132.081,190.483z"/>
		<path fill="#C90000" d="M137.362,190.952c0,0,1.698-2.594,4.125-3.5c1.223-0.457,4.719-0.906,7.562-0.188s6.906,2.531,7.906,4.031
			s0.562,2.969,0.562,2.969s-1.354-1.448-2.75-2.031c-2.002-0.836-5.208-0.994-7.312-0.188c-4.188,1.604-7.438,1.125-8.25,1.812
			S137.362,190.952,137.362,190.952z"/>
		<path opacity="0.5" fill="#910000" d="M130.315,188.655c-0.085,0.042-0.628,0.483-0.938,1.359
			c-0.281,0.797,0.062,1.391,0.062,1.391s-0.905-0.184-1.469-0.172c-0.781,0.016-1.75,0.297-1.75,0.297
			c0.222,0.114,0.814,0.41,1.029,0.504c1.073-0.265,1.988-0.189,2.563-0.074c-0.047-0.461-0.027-0.885,0.111-1.195
			c0.415-0.934,0.855-1.202,1.312-1.31C131.099,189.318,130.494,188.811,130.315,188.655z"/>
		<path opacity="0.5" fill="#910000" d="M137.799,190.39l-0.27,0.324c0.579,0.23,1.125,0.597,1.085,1.477
			c0.453,0.313,1.051,0.771,1.654,1.317l0.562-0.071c0,0-0.906-0.844-2.016-1.281C138.893,191.093,137.799,190.39,137.799,190.39z"
			/>
		<g>
			<path fill="#C90000" d="M130.464,192.14c0,0-2.659-1.098-5.54,0.983c-2.115,1.527-1.531,3.027-4.289,3.931
				c-1.717,0.562-3.576,0.722-6.118-0.237c0.792,1.292,3.057,3.994,6.542,4.084c3.485,0.089,5.875-0.5,7.975-3.4
				c1.43-1.976,2.942-1.642,2.942-1.642L130.464,192.14z"/>
			<path opacity="0.5" fill="#910000" d="M130.893,191.749c-0.024,0.011-0.938-0.016-0.938-0.016s-0.578,0.656-0.156,2.125
				c0.211,0.734,0.844,1.859,1.922,2.016c0.084,0.013,1.345-0.172,1.406-0.109c0.597-0.193-1.151,0.094-1.151,0.094l-1.513-3.719
				C130.464,192.14,131.51,191.833,130.893,191.749z"/>
			<path fill="#C90000" d="M134.893,195.483c0,0,2.556,0.662,2.09,3.425s-0.702,5.096,1.035,6.908s6.917,1,6.917,1
				s-3.693-3.259-2.292-7.625c1.083-3.375-2.925-6.269-4.333-7.208C136.901,191.045,134.893,195.483,134.893,195.483z"/>
			<path opacity="0.5" fill="#910000" d="M135.706,196.108c0,0,1.234,0.453,2.016-0.969c1.827-3.325,0.328-3.188,0.328-3.188
				L135.706,196.108z"/>
			<path fill="#C90000" d="M134.092,190.364c1.176,0.4,2.488-0.006,3.332,0.307s1.704,0.855,0.843,2.813
				c-0.86,1.958-1.592,2.991-2.754,2.862c-1.162-0.13-1.679-0.345-2.583-0.259c-0.904,0.087-1.549-0.215-2.001-0.839
				s-1.521-3.322-1.004-4.484c0.517-1.162,1.072-1.298,1.65-1.369C132.643,189.265,132.917,189.964,134.092,190.364z"/>
		</g>
	</g>
	<path display="inline" fill="#FFFFFF" d="M142.581,156.346c7.468,2.489,8.837-0.545,12.067,2.123s-3.25,12-11.25,11.25
		c-7.021-0.658-11.759-3.514-13.625-5.25c-5.375-5-4.007-13.141-0.125-14.25C134.023,148.969,135.112,153.856,142.581,156.346z"/>
	<path display="inline" fill="#F4C9A2" d="M71.524,145.281"/>
	<path display="inline" fill="#F4C9A2" d="M77.015,134.35"/>
	<path display="inline" fill="#F4C9A2" d="M86.31,147.65c-2.167-2.209-3.818-6.552-2.417-10.416
		c1.208-3.334,3.667-3.793,5.375-2.959c-2.75,1.083-3.458,2.666-3.938,4.396C84.556,141.465,85.143,144.066,86.31,147.65z"/>
	<path display="inline" fill="#F4C9A2" d="M178.445,153.283c0,0,2.662,1.694,1.029,5.446c-0.867,1.992-3.699,3.053-3.699,3.053
		s1.998-1.682,2.847-3.582C179.748,155.679,178.445,153.283,178.445,153.283z"/>
	<g display="inline">
		<path fill="#404041" d="M76.751,113.813c-0.001,0.014-0.003,0.026-0.003,0.04C76.737,113.866,76.737,113.851,76.751,113.813z"/>
		<path fill="#404041" d="M90.003,145.514c-0.482-0.248-1.698-4.467-1.081-8.33c-0.738,0.143-1.213,1.344-1.213,1.344
			c-0.408-9.479,0.355-25.309,0.355-25.309s-7.084,2.584-9.834,9.667c-0.781-3.461,1.502-12.759,2.58-15.388
			c-1.095,0.456-3.86,5.779-4.06,6.315c0.79-11.349,8.869-18.888,11.538-22.224c-1.826,1.92-4.354,4.43-5.662,5.1
			c1.784-9.232,7.326-12.785,7.326-12.785s-2.252-8.627-0.028-11.885c2.086,5.283,4.273,4.535,4.273,4.535s1.884-3.258,4.28-5.123
			c2.4-1.865,7.93-3.424,7.93-3.424s-6.833-2.508-7.83-5.461c6.134,2.064,25.959,5.308,25.201,0.24
			c-0.757-5.068-8.65-11.072-8.65-11.072s22.394,5.379,30.124,13.982c1.145-3.479-4.766-13.652-4.766-13.652
			s9.785,5.924,16.706,16.145c-0.171-4.596-5.882-12.025-5.882-12.025s15.211,9.305,23.336,25.722c1.001-1.876,0.5-4.917,0.5-4.917
			s8.204,10.528,11.417,26.75c3.334,16.834,0,40-7.833,52.417c0.25-2.917-0.334-5.417-0.334-5.417c-0.29,1.657-3.062,5.334-4,6.834
			c1.212-8.426,2.772-34.21-5.375-36.709c-2.559,1.005,1,6.625,1,6.625s-8.036-4.404-12-12.125c-0.964,4.779,2.375,9.75,2.375,9.75
			s-8.875-4.125-15.821-13.904c0,0-12.178,9.195-31.846,10.195c8.167-5,5.667-11.832,5.667-11.832s-5.917,2.5-7.968,5.688
			c-0.467-1.744,1.414-4.924,1.414-4.924s-14.625,15.908-18.725,31.809c-0.701-1.818-0.555-4.072-0.555-4.072
			C91.793,138.965,90.338,142.115,90.003,145.514z"/>
	</g>
</g>
</svg>
