<?xml version="1.0" encoding="utf-8"?>
<!-- Generator: Adobe Illustrator 16.0.0, SVG Export Plug-In . SVG Version: 6.00 Build 0)  -->
<!DOCTYPE svg PUBLIC "-//W3C//DTD SVG 1.1//EN" "http://www.w3.org/Graphics/SVG/1.1/DTD/svg11.dtd">
<svg version="1.1" xmlns="http://www.w3.org/2000/svg" xmlns:xlink="http://www.w3.org/1999/xlink" x="0px" y="0px"
	 width="305.534px" height="238.643px" viewBox="0 0 305.534 238.643" enable-background="new 0 0 305.534 238.643"
	 xml:space="preserve">
<g id="Layer_3">
	<g>
		<path fill="#404041" d="M200.128,110.109c0,0,15.601,13.954,30.101,2.383c0,0-3.037,14.602-17.157,12.781
			C200.402,123.641,200.128,110.109,200.128,110.109z"/>
		<path fill="#404041" d="M262.784,71.197c0,0,3.276-0.013,4.677-2.719c1.401-2.705-0.615-5.402-0.615-5.402
			s2.528-1.954,3.026-3.921c0.902-3.554-1.692-5.218-1.692-5.218s2.521-2.464,2.064-5.918c-0.454-3.457-3.981-5.394-3.981-5.394
			s2.119-4.266,0.719-7.339c-1.398-3.069-5.934-3.809-5.934-3.809s0.82-4.101-1.11-6.646c-1.933-2.547-6.157-2.923-6.157-2.923
			s0.539-3.801-1.876-5.957c-2.412-2.158-5.773-1.691-5.773-1.691s-0.533-4.48-3.651-6.416c-3.123-1.935-7.765,0.654-7.765,0.654
			s-1.002-3.37-3.177-4.493c-2.178-1.122-4.998,0.603-4.998,0.603s-1.884-3.118-4.545-3.97c-2.663-0.851-6.204,1.753-6.204,1.753
			s-2.521-2.913-5.051-2.311c-2.529,0.595-4.385,4.116-4.385,4.116s-1.844-3.415-5.389-2.649c-3.543,0.767-4.824,5.074-4.824,5.074
			s-1.559-3.629-5.443-2.967c-3.877,0.663-5.346,4.671-5.346,4.671s-1.354-2.651-5.307-1.936c-3.955,0.715-7.244,7.315-7.244,7.315
			s-3.053-0.954-6.617,0.816c-3.424,1.698-3.638,5.726-3.946,8.67c0,0-4.261-0.818-7.228,1.365
			c-2.969,2.187-3.267,8.516-3.267,8.516s-3.406,0.742-4.73,3.212c-1.322,2.472-1.476,7.22-1.476,7.22s-2.805,0.521-3.88,3.98
			c-1.075,3.46,0.833,6.387,0.833,6.387s-3.747,0.874-4.46,4.483c-0.717,3.61,2.252,6.787,2.252,6.787s-3.898,3.077-2.887,8.448
			c1.009,5.371,4.522,5.958,4.522,5.958s-2.422,5.957,0.409,9.581c2.83,3.623,6.239,3.909,6.239,3.909s-1.48,4.953,2.658,8.276
			c4.539,3.649,11.902,0.354,11.902,0.354s19.178,2.576,20.716,2.519c1.545-0.057,31.956-8.48,31.956-8.48l40.743-16.498
			c0,0,3.423,1.175,6.199-2.467C264.692,74.188,262.784,71.197,262.784,71.197z"/>
		<polygon fill="#B29B8D" points="206.78,129.922 205.861,144.464 218.928,145.212 218.489,130.004 		"/>
		<path opacity="0.1" fill="#404041" d="M218.489,130.004l-11.709-0.083l-0.348,5.522c1.313,0.32,3.268,0.739,5.009,0.863
			c2.688,0.195,4.33,0.225,7.223-0.254L218.489,130.004z"/>
		<path fill="#B29B8D" d="M257.541,79.259c0.429,32.365-18.688,57.27-52.747,53.155c-25.215-3.05-40.079-22.883-40.407-48.979
			c-0.04-3.228-2.363-32.087,5.045-35.748c24.032-11.878,72.849-4.654,72.849-4.654S257.226,55.201,257.541,79.259z"/>
		<path fill="#F4C9A2" d="M34.205,204.171c25.187-14.109,26.551-12.864,28.626-12.636c2.076,0.228,11.979,2.275,11.979,2.275
			l2.238-11.359c0,0-10.432-2.392-12.727-2.73c-2.293-0.338-8.455-1.249-35.269,14.868L34.205,204.171z"/>
		<path fill="#8E6464" d="M89.08,180.958c0,0-18.833-2.971-20.234-0.728c-3.564,13.304,0.119,25.657,0.119,25.657
			s11.418,1.09,17.333,1.531c5.917,0.434,19.135,6.331,26.004-2.406c5.413-6.889,2.04-24.054,2.04-24.054H89.08z"/>
		<path fill="#989899" d="M5.031,176.358c0,0-2.425,1.264-2.706,1.967c-0.279,0.704-2.237,5.894,5.364,17.504
			c7.604,11.609,14.79,18.426,21.648,15.596c1.729-1.097-13.186-21.293-13.186-21.293L5.031,176.358z"/>
		<path fill="#ADA18C" d="M30.175,193.934c0.836,4.883,2.528,7.333,6.342,8.93c0,0-0.984,4.847-6.157,8.074
			c-6.146,3.674-12.9-3.507-20.061-13.63c-5.702-8.064-8.432-17.396-7.046-19.364c3.007-4.263,13.555-4.154,16.756-0.08
			C23.617,182.453,24.48,193.078,30.175,193.934z"/>
		<path fill="#FED7AF" d="M32.164,209.931c25.188-14.112,26.55-12.867,28.625-12.638c2.078,0.227,11.979,2.277,11.979,2.277
			l2.239-11.36c0,0-10.431-2.392-12.727-2.731c-2.293-0.338-8.456-1.248-35.269,14.866L32.164,209.931z"/>
		<path fill="#B07775" d="M89.977,185.624c0,0-23.2-2.97-24.925-0.728c-4.391,13.302,0.145,25.652,0.145,25.652
			s14.067,1.096,21.357,1.532c7.287,0.436,23.568,6.333,32.031-2.406c6.67-6.887,3.354-24.378,3.354-24.378L89.977,185.624z"/>
		<g>
			<path fill="#A6A8AB" d="M3.136,182.043c0,0-2.425,1.264-2.706,1.967c-0.28,0.705-2.238,5.894,5.365,17.502
				c7.603,11.607,14.788,18.426,21.646,15.598c1.73-1.096-13.184-21.292-13.184-21.292L3.136,182.043z"/>
			<path fill="#C1B49A" d="M28.281,199.619c0.838,4.882,2.528,7.332,6.34,8.926c0,0-0.983,4.846-6.156,8.077
				c-6.145,3.671-12.9-3.506-20.06-13.63c-5.703-8.062-8.432-17.396-7.046-19.363c3.005-4.264,13.554-4.155,16.754-0.081
				C21.721,188.138,22.584,198.766,28.281,199.619z"/>
		</g>
		<g>
			
				<rect x="39.222" y="183.313" transform="matrix(0.988 0.1546 -0.1546 0.988 29.3243 -7.3792)" fill="#929497" width="45.737" height="2.95"/>
			<polygon fill="#A6A8AB" points="39.726,179.794 51.089,171.355 79.968,174.533 84.912,186.868 			"/>
			<polygon fill="#BBBDBF" points="51.089,171.355 39.726,179.794 6.214,145.139 22.647,142.458 			"/>
			<polygon fill="#929497" points="39.726,179.794 39.269,182.708 5.875,146.98 6.214,145.139 			"/>
		</g>
		<polygon fill="#808184" points="71.755,182.85 44.786,178.913 52.58,172.725 70.941,174.903 		"/>
		<path fill="#F4C9A2" d="M95.334,159.712l-4.245-6.528c0,0-4.19,6.431-23.771,14.325c-0.936-0.1-1.815-0.165-2.492-0.21
			c-3.225-0.22-7.238,0.333-10.644,4.148c-2.615,2.93-3.022,4.942-1.294,5.833c1.729,0.887,2.952-1.025,6.495-1.423
			c3.105-0.347,4.757,0.562,8.07-0.245c0.968-0.232,1.959-0.74,2.858-1.37C92.253,167.276,95.334,159.712,95.334,159.712z"/>
		<path fill="#FDD6AE" d="M71.938,172.151c-0.952-1.571-5.958-2.302-8.388-2.628c-3.202-0.434-7.243-0.146-10.895,3.432
			c-2.807,2.75-3.343,4.731-1.68,5.732c1.666,1.002,3.013-0.826,6.575-0.985c3.123-0.14,4.602,0.489,7.962-0.095
			S72.887,173.722,71.938,172.151z"/>
		<path fill="#F3C8A1" d="M51.306,178.796c0.942-1.953,4.882-4.641,7.153-3.986c1.058,0.544-1.606,0.637-2.832,1.124
			C54.399,176.427,53.021,177.103,51.306,178.796z"/>
		<path fill="#F3C8A1" d="M50.08,177.338c0.825-2.006,4.599-4.923,6.906-4.402c1.088,0.481-1.567,0.73-2.76,1.292
			C53.027,174.79,51.69,175.547,50.08,177.338z"/>
		<path fill="#FDD6AE" d="M103.496,148.112c0,0-12.35,14.886-36.999,21.929l0.839,6.812c22.552-5.409,40.209-20.857,40.209-20.857
			L103.496,148.112z"/>
		<polygon fill="#FED7AF" points="88.26,129.543 92.47,143.622 105.087,139.77 99.366,125.535 		"/>
		<path fill="#F4C9A2" d="M102.107,132.374l-2.741-6.839l-11.106,4.009l2.006,6.712c1.763-0.117,4.13-0.641,6.153-1.273
			C98.753,134.254,101.113,133.015,102.107,132.374z"/>
		<path fill="#2A7ABC" d="M77.403,158.169c10.349-10.205,9.626-20.193,18.601-16.285c8.975,3.907-2.315,24.463-6.079,26.489
			C86.885,167.795,77.765,166.492,77.403,158.169z"/>
		<path fill="#FED7AF" d="M27.457,72.333c-4.321,12.221,4.468,29.584,5.564,32.889c1.096,3.3-3.317,6.112-2.81,8.537
			c0.993,4.751,7.204,3.781,8.885,5.826c1.682,2.046,20.397,19.073,44.927,15.095c30.758-4.988,38.708-31.4,38.708-31.4
			l-22.122-55.941L68.632,31.591L35.909,53.024C35.909,53.024,31.78,60.11,27.457,72.333z"/>
		<path fill="#AA9651" d="M93.232,22.373c0,0-19.995-9.743-40.545,1.084C25.353,37.86,23.851,57.488,12.81,53.157
			c0.815,4.686,2.849,6.279,2.849,6.279s-2.614,1.729-7.053-3.498c1.477,10.127,6.792,13.469,7.432,13.699
			c0.642,0.228-2.083,2.031-6.043,0.243c3.29,9.906,16.352,8.176,16.352,8.176s6.621-10.476,13.436-14.986
			c-1.332,2.676-0.583,4.303-0.583,4.303s6.521-6.271,13.514-8.452c-2.562,2.295-4.49,6.292-4.49,6.292s8.733-5.691,17.679-4.719
			c8.943,0.97,13.01,12.323,13.36,17.656c0.295,4.499-0.45,6.127-0.45,6.127s7.884,1.446,14.39,2.639
			c2.658,0.486,1.8,2.865,5.171,3.097c5.977,2.625,11.516,25.948,10.281,33.295C134.1,103.28,134.1,73.505,125.979,52.933
			C119.296,36,103.829,27.28,103.829,27.28s1.745-2.296,6.313-2.055c-6.973-3.386-11.63-0.795-11.63-0.795s-2.075-6.221-8.885-8
			C91.714,18.968,93.232,22.373,93.232,22.373z"/>
		<path fill="#FED7AF" d="M83.772,91.031c0,0-0.397-14.674,6.324-17.995c6.084-3.009,12.186,0.196,13.741,5.812
			c1.655,5.971-2.091,10.47-5.932,13.995c-5.316,4.879-5.213,3.617-12.946,11.475l-1.758-7.319L83.772,91.031z"/>
		<path fill="#FFFFFF" d="M61.181,125.732c0.533,3.607,3.861,4.848,7.805,3.818c2.754-0.72,5.65-2.1,8.573-5.777
			c1.848-2.327,3.062-6.72,1.562-9.859c-1.428-2.994-4.341-5.373-7.888-1.685c-2.049,2.128-2.103,4.402-4.143,6.598
			C65.053,121.026,60.65,122.125,61.181,125.732z"/>
		<path fill="#AA9651" d="M45.1,78.928c-1.783-1.348-6.703-2.159-10.601,0.688c-2.368,1.73-3.353,4.108-3.446,4.867
			c-0.176,1.215,1.511,2.146,1.942,1.064c0.335-0.767,0.697-2.339,3.256-4.326C39.915,78.378,43.389,78.827,45.1,78.928z"/>
		<path fill="#A0C8F9" d="M91.539,140.472c7.366,1.094,12.149-4.195,12.149-4.195s15.532,11.834,19.38,49.202
			c-11.079,9.327-32.62,3.921-34.221,1.675c-4.209-5.904-0.253-23.25,0.766-30.721c0.078-0.57-3.754-7.447-3.462-7.908
			C89.378,143.442,90.923,141.127,91.539,140.472z"/>
		<path fill="#4089E2" d="M76.821,161.157c10.83-10.679,10.073-21.132,19.465-17.041c9.389,4.089-2.425,25.598-6.364,27.721
			C86.742,171.228,77.2,169.865,76.821,161.157z"/>
		<path fill="#F4C9A2" d="M88.884,80.597c0,0,2.783-4.601,7.141-3.789c5.393,1.004,4.302,7.87,4.302,7.87
			C98.147,73.662,88.884,80.597,88.884,80.597z"/>
		
			<ellipse transform="matrix(0.822 -0.5694 0.5694 0.822 -44.6711 40.6998)" fill="#FFFFFF" cx="42.779" cy="91.818" rx="5.424" ry="7.071"/>
		<path fill="#404041" d="M44.931,92.556c1.295,1.222,1.589,3.017,0.654,4.011c-0.938,0.997-2.749,0.814-4.048-0.406
			c-1.294-1.221-1.587-3.019-0.651-4.013C41.823,91.153,43.632,91.336,44.931,92.556z"/>
		<path opacity="0.1" fill="#404041" d="M165.496,86.933c0,0,4.676-0.488,6.183-3.419c1.511-2.934,0.504-5.366,0.504-5.366
			s3.876-0.268,5.453-2.907c1.581-2.635,1.549-6.551,1.549-6.551s3.095-0.019,5.038-2.697c1.943-2.677,1.081-5.955,1.081-5.955
			s2.193,1.231,4.271-0.302c2.08-1.532,1.89-4.435,1.89-4.435s1.034,2.312,3.396,3.269c2.949,1.197,4.78-0.942,4.78-0.942
			s0.721,2.489,2.891,3.646c2.174,1.159,5.095-0.313,5.095-0.313s-0.027,2.658,3.648,3.773c3.359,1.02,4.967-0.378,4.967-0.378
			s0.967,1.92,3.436,2.683c2.469,0.761,5.24-1.394,5.24-1.394s1.369,2.919,4.812,3.144c3.445,0.229,5.657-2.13,5.657-2.13
			s2.468,3.042,5.047,2.705c2.58-0.34,3.823-3.023,3.823-3.023s1.562,2.268,3.811,1.911c2.244-0.358,3.243-2.498,3.243-2.498
			s1.107,2.008,3.654,2.264c3.422,0.344,5.141-4.987,5.141-4.987s-3.415-13.709-7.224-15.534
			c-3.808-1.823-14.718-6.452-18.237-7.443c-3.517-0.992-11.915-2.343-13.561-2.892c-1.645-0.546-41.357-6.372-41.743-5.339
			c-0.385,1.032-14.874,10.124-15.663,12.538c-0.787,2.414-2.343,13.549-2.987,19.823C160.047,70.459,165.496,86.933,165.496,86.933
			z"/>
		<path fill="#B29B8D" d="M273.205,124.79c0,0,1.551-1.65,1.757-3.267c0.295-2.333-6.053-4.939-4.106-6.911
			c1.946-1.97,4.629,3.207,6.329,2.728c1.588-0.448,1.474-8.841,3.388-8.755c3.156,0.136-0.785,8.89,1.208,9.581
			c1.999,0.687,6.232-8.548,8.571-6.332c1.954,1.849-5.815,7.308-4.694,9.026c1.28,1.755,8.539-3.203,9.304-0.649
			c0.764,2.555-7.377,3.23-7.607,4.398c-0.41,2.13,6.204,2.207,5.404,4.253c-0.714,1.819-3.779-0.258-7.278-0.841
			c-2.744-0.46-4.922,1.329-5.628,1.914C277.909,129.325,273.205,124.79,273.205,124.79z"/>
		<path fill="#B29B8D" d="M154.236,122.978c0,0-1.82-1.534-2.061-3.147c-0.342-2.327,5.951-5.061,3.966-6.992
			c-1.983-1.93-4.564,3.301-6.271,2.855c-1.595-0.416-1.652-8.81-3.566-8.686c-3.152,0.202,0.966,8.873-1.014,9.604
			c-1.983,0.729-6.404-8.42-8.698-6.157c-1.913,1.889,5.962,7.191,4.878,8.932c-1.244,1.78-8.603-3.032-9.316-0.462
			c-0.709,2.569,7.878,2.681,7.694,4.243c-0.28,2.317-5.73,0.77-5.567,3.045c0.119,1.668,4.663,0.321,7.521,0.06
			c2.862-0.264,4.802,0.666,5.882,1.741C149.614,127.363,154.236,122.978,154.236,122.978z"/>
		<path fill="#208AAF" d="M176.607,195.674c-2.495,12.36,17.695,20.454,23.223,16.276c2.076-2.501,15.74-21.908,15.74-21.908
			S185.896,182.781,176.607,195.674z"/>
		<path fill="#B29B8D" d="M178.472,223.6c18.733-21.65,26.68-24.83,26.68-24.83l-6.454-8.18c0,0-8.69,1.737-28.264,25.809
			L178.472,223.6z"/>
		<path fill="#208AAF" d="M248.619,208.795c6.208-2.622,8.671-23.127,6.432-26.168c-5.99-1.782-12.629,1.146-12.629,1.146
			S244.546,202.785,248.619,208.795z"/>
		<path fill="#B29B8D" d="M272.174,209.968c-13.1-6.492-36.178-11.779-36.178-11.779l2.668-10.074c0,0,18.271,2.283,37.45,12.494
			L272.174,209.968z"/>
		<path fill="#26A9E0" d="M192.527,184.015c0,0-11.518,3.914-15.92,11.659c4.983-7.098,29.447,4.533,23.223,16.276
			c15.837-9.999,39.809-6.352,48.789-3.155c-3.028-9.053,3.114-24.922,6.432-26.168c-12.433-3.223-20.197,0.848-20.197,0.848
			l-13.347-5.948L192.527,184.015z"/>
		<polygon fill="#B29B8D" points="206.78,129.922 205.861,144.464 218.928,145.212 218.489,130.004 		"/>
		<path opacity="0.1" fill="#404041" d="M218.489,130.004l-11.709-0.083l-0.329,4.999c1.438,0.938,3.823,1.542,5.562,1.688
			c1.875,0.156,4.562-0.125,6.625-1.156L218.489,130.004z"/>
		<path fill="#404041" d="M200.128,110.109c0,0,15.601,13.954,30.101,2.383c0,0-3.037,14.602-17.157,12.781
			C200.402,123.641,200.128,110.109,200.128,110.109z"/>
		<path fill="#E2CE6A" d="M182.302,136.374c0,0-5.161,6.533-2.361,14.284c4.68,0.882,4.812-7.464,4.812-7.464L182.302,136.374z"/>
		<path fill="#B29B8D" d="M238.436,143.248c8.388-2.98,19.842-5.163,19.842-5.163s8.353-6.251,14.949-13.315l6.625,5.166
			c-7.598,8.831-15.594,15.587-17.554,16.439c-2.554,1.11-7.975,3.262-21.705,5.719L238.436,143.248z"/>
		<path fill="#404041" d="M262.784,71.197c0,0,3.276-0.013,4.677-2.719c1.401-2.705-0.615-5.402-0.615-5.402
			s2.528-1.954,3.026-3.921c0.902-3.554-1.692-5.218-1.692-5.218s2.521-2.464,2.064-5.918c-0.454-3.457-3.981-5.394-3.981-5.394
			s2.119-4.266,0.719-7.339c-1.398-3.069-5.934-3.809-5.934-3.809s0.82-4.101-1.11-6.646c-1.933-2.547-6.157-2.923-6.157-2.923
			s0.539-3.801-1.876-5.957c-2.412-2.158-5.773-1.691-5.773-1.691s-0.533-4.48-3.651-6.416c-3.123-1.935-7.765,0.654-7.765,0.654
			s-1.002-3.37-3.177-4.493c-2.178-1.122-4.998,0.603-4.998,0.603s-1.884-3.118-4.545-3.97c-2.663-0.851-6.204,1.753-6.204,1.753
			s-2.521-2.913-5.051-2.311c-2.529,0.595-4.385,4.116-4.385,4.116s-1.844-3.415-5.389-2.649c-3.543,0.767-4.824,5.074-4.824,5.074
			s-1.559-3.629-5.443-2.967c-3.877,0.663-5.346,4.671-5.346,4.671s-1.354-2.651-5.307-1.936c-3.955,0.715-7.244,7.315-7.244,7.315
			s-3.053-0.954-6.617,0.816c-3.424,1.698-3.638,5.726-3.946,8.67c0,0-4.261-0.818-7.228,1.365
			c-2.969,2.187-3.267,8.516-3.267,8.516s-3.406,0.742-4.73,3.212c-1.322,2.472-1.476,7.22-1.476,7.22s-2.805,0.521-3.88,3.98
			c-1.075,3.46,0.833,6.387,0.833,6.387s-3.747,0.874-4.46,4.483c-0.717,3.61,2.252,6.787,2.252,6.787s-3.898,3.077-2.887,8.448
			c1.009,5.371,4.522,5.958,4.522,5.958s-2.422,5.957,0.409,9.581c2.83,3.623,6.239,3.909,6.239,3.909s-1.48,4.953,2.658,8.276
			c4.539,3.649,11.902,0.354,11.902,0.354s19.178,2.576,20.716,2.519c1.545-0.057,31.956-8.48,31.956-8.48l40.743-16.498
			c0,0,3.423,1.175,6.199-2.467C264.692,74.188,262.784,71.197,262.784,71.197z"/>
		<path fill="#B29B8D" d="M257.541,79.259c-1.658,35.682-23.684,57.781-52.747,53.155c-25.08-3.992-40.079-22.883-40.407-48.979
			c-0.04-3.228-2.363-32.087,5.045-35.748c24.032-11.878,72.849-4.654,72.849-4.654S259.205,43.577,257.541,79.259z"/>
		<g>
			<circle fill="#FFFFFF" cx="193.932" cy="89.856" r="7.014"/>
			<path fill="#404041" d="M199.002,89.493c-0.088,1.764-1.59,3.124-3.354,3.036c-1.763-0.087-3.124-1.588-3.04-3.354
				c0.088-1.766,1.593-3.125,3.355-3.038C197.729,86.226,199.089,87.727,199.002,89.493z"/>
		</g>
		<g>
			<circle fill="#FFFFFF" cx="240.515" cy="85.908" r="7.013"/>
			<circle fill="#404041" cx="242.389" cy="85.386" r="3.201"/>
		</g>
		<path fill="#404041" d="M164.533,85.616c0,0,4.668,0.348,6.195-2.622c1.534-2.971,0.41-5.926,0.41-5.926s4.095-0.624,5.693-3.296
			c1.601-2.67,1.569-6.636,1.569-6.636s3.134-0.021,5.104-2.734c1.967-2.713,0.792-5.769,0.792-5.769s2.523,0.985,4.63-0.568
			c2.106-1.552,2.11-5.034,2.11-5.034s1.471,3.038,3.863,4.009c2.989,1.212,5.146-1.343,5.146-1.343s0.61,2.978,2.81,4.151
			c2.201,1.174,5.639-0.894,5.639-0.894s-0.68,3.266,3.04,4.393c3.407,1.035,4.992-0.697,4.992-0.697s0.896,2.11,3.396,2.883
			c2.503,0.771,5.257-1.672,5.257-1.672s1.251,3.261,4.736,3.49c3.491,0.232,5.42-2.275,5.42-2.275s2.501,3.083,5.111,2.739
			c2.613-0.345,3.875-3.062,3.875-3.062s1.582,2.297,3.857,1.936c2.275-0.363,3.286-2.529,3.286-2.529s1.123,2.035,3.703,2.292
			c3.464,0.349,5.206-5.052,5.206-5.052s-3.458-13.888-7.317-15.737c-3.856-1.846-14.91-6.534-18.474-7.539
			c-3.563-1.004-12.071-2.373-13.738-2.931c-1.666-0.552-41.896-6.454-42.286-5.408c-0.394,1.045-15.07,10.257-15.866,12.7
			c-0.8,2.446-2.375,13.726-3.029,20.082C159.012,68.927,164.533,85.616,164.533,85.616z"/>
		<path fill="#B29B8D" d="M171.503,86.756c0,0-8.241-9.073-14.751-3.158c-6.51,5.917-1.371,15.545,2.785,19.131
			c7.032,6.069,16.022,1.907,16.022,1.907L171.503,86.756z"/>
		<path fill="#404041" d="M231.326,76.393c0,0,0.044-0.314,0.242-0.827c0.202-0.506,0.57-1.217,1.191-1.944
			c0.309-0.363,0.667-0.754,1.102-1.094c0.424-0.355,0.91-0.695,1.449-0.975c0.528-0.301,1.113-0.545,1.72-0.738
			c0.625-0.21,1.203-0.324,1.918-0.436l0.871-0.083c0.331-0.014,0.67-0.014,1.003-0.007c0.644,0.026,1.257,0.104,1.85,0.231
			c1.18,0.258,2.225,0.706,3.021,1.225c0.813,0.493,1.386,1.052,1.742,1.463c0.36,0.418,0.503,0.699,0.503,0.699
			s-1.193-0.396-2.831-0.691c-0.831-0.13-1.765-0.253-2.762-0.284c-0.491-0.023-1.011-0.01-1.514,0.005
			c-0.245,0.023-0.484,0.034-0.737,0.045l-0.871,0.091c-0.438,0.071-1.015,0.148-1.498,0.264c-0.5,0.101-0.99,0.235-1.457,0.388
			c-0.938,0.3-1.797,0.681-2.529,1.065C232.288,75.58,231.326,76.393,231.326,76.393z"/>
		<path fill="#404041" d="M181.886,81.68c0,0-0.015-0.329,0.11-0.888c0.118-0.554,0.377-1.348,0.895-2.198
			c0.256-0.427,0.56-0.888,0.944-1.312c0.382-0.438,0.822-0.867,1.332-1.247c0.486-0.4,1.052-0.746,1.646-1.048
			c0.605-0.322,1.182-0.536,1.897-0.769l0.881-0.232c0.338-0.07,0.689-0.126,1.031-0.176c0.668-0.081,1.31-0.106,1.941-0.074
			c1.256,0.068,2.406,0.352,3.314,0.752c0.916,0.371,1.598,0.847,2.033,1.211c0.439,0.367,0.638,0.634,0.638,0.634
			s-1.294-0.208-3.031-0.235c-0.874,0.005-1.854,0.038-2.884,0.172c-0.512,0.059-1.041,0.162-1.557,0.262
			c-0.249,0.063-0.494,0.115-0.753,0.167l-0.877,0.243c-0.438,0.144-1.024,0.321-1.499,0.522c-0.498,0.191-0.979,0.407-1.431,0.644
			c-0.915,0.466-1.733,1.002-2.421,1.523C182.732,80.682,181.886,81.68,181.886,81.68z"/>
		<path opacity="0.3" fill="#404041" d="M166.361,88.285c0,0-6.847-1.787-8.244,2.629c-1.4,4.416,4.572,8.962,4.572,8.962
			s-2.128-3.554-1.664-6.634C161.553,89.728,166.361,88.285,166.361,88.285z"/>
		<path fill="#FFFFFF" d="M202.49,113.067c3.884-3.406,7.229,0.592,13.2,1.594c5.967,1,8.484-1.536,11.304,1.302
			c3.222,3.288-1.945,11.675-14.074,9.952C202.306,124.407,198.604,116.472,202.49,113.067z"/>
		<path opacity="0.5" fill="#208AAF" d="M234.854,183.475c0,0-4.392,1.771-6.691,4.367c0.423-4.174,2.26-6.183,2.26-6.183
			L234.854,183.475z"/>
		<path fill="#6D6E70" d="M179.135,236.515c0,0,1.994-3.075,2.028-7.425c0.023-2.207-3.801-6.485-6.758-12.495
			c-4.062-8.244-9.244-15.004-17.452-15.845c-10.679-1.093-16.034,6.662-16.034,6.662S160.263,215.992,179.135,236.515z"/>
		<path fill="#404041" d="M140.919,207.412c2.513-3.453,11.312-3.739,17.486,3.472c9.578,11.185,22.354,22.095,20.729,25.631
			c-0.658,1.436-3.484,3.844-9.638,0.243c-6.153-3.594-4.629-3.991-8.572-6.72C156.989,227.318,134.446,216.297,140.919,207.412z"/>
		<path fill="#6D6E70" d="M272.874,221.059c0,0-2.241-2.338-3.972-6.332c-1.303-2.995,0.411-6.911,2.538-13.262
			c3.566-10.679,8.937-16.632,16.797-19.141c10.225-3.266,16.054,2.396,16.054,2.396S287.122,197.091,272.874,221.059z"/>
		<path fill="#404041" d="M304.291,184.72c-3.144-2.891-11.697,2.079-16.256,10.403c-7.07,12.916-16.72,21.966-15.161,25.936
			c0.578,1.471,3.926,2.546,9.212-2.239c5.283-4.788,3.979-4.364,7.276-7.841C292.656,207.506,310.315,190.255,304.291,184.72z"/>
		<path opacity="0.1" fill="#404041" d="M168.673,137.418c0.706-0.576,2.22-0.987,2.22-0.987l-1.022-0.191"/>
		<path fill="#208AAF" d="M176.607,195.674c-2.495,12.36,17.695,20.454,23.223,16.276c2.076-2.501,15.74-21.908,15.74-21.908
			S185.896,182.781,176.607,195.674z"/>
		<path fill="#B29B8D" d="M178.472,223.6c18.733-21.65,26.68-24.83,26.68-24.83l-6.454-8.18c0,0-8.69,1.737-28.264,25.809
			L178.472,223.6z"/>
		<path fill="#208AAF" d="M248.619,208.795c6.208-2.622,8.671-23.127,6.432-26.168c-5.99-1.782-12.629,1.146-12.629,1.146
			S244.546,202.785,248.619,208.795z"/>
		<path fill="#B29B8D" d="M272.174,209.968c-13.1-6.492-36.178-11.779-36.178-11.779l2.668-10.074c0,0,18.271,2.283,37.45,12.494
			L272.174,209.968z"/>
		<path fill="#26A9E0" d="M192.527,184.015c0,0-11.518,3.914-15.92,11.659c4.983-7.098,29.447,4.533,23.223,16.276
			c15.837-9.999,39.809-6.352,48.789-3.155c-3.028-9.053,3.114-24.922,6.432-26.168c-12.433-3.223-20.197,0.848-20.197,0.848
			l-13.347-5.948L192.527,184.015z"/>
		<path fill="#E2CE6A" d="M182.302,136.374c-3.257-0.579-6.132,11.671-2.361,14.284c4.68,0.882,4.812-7.464,4.812-7.464
			S184.121,136.765,182.302,136.374z"/>
		<path fill="#B29B8D" d="M189.332,141.022c-8.87-2.642-20.2-5.072-20.2-5.072s-8.159-6.043-14.896-12.973l-6.569,5.024
			c6.856,7.771,15.383,14.918,17.041,15.768c2.577,1.324,10.882,4.002,22.776,6.125L189.332,141.022z"/>
		<g>
			<circle fill="#FFFFFF" cx="193.932" cy="89.856" r="7.014"/>
			<path fill="#404041" d="M199.002,89.493c-0.088,1.764-1.59,3.124-3.354,3.036c-1.763-0.087-3.124-1.588-3.04-3.354
				c0.088-1.766,1.593-3.125,3.355-3.038C197.729,86.226,199.089,87.727,199.002,89.493z"/>
		</g>
		<g>
			<circle fill="#FFFFFF" cx="240.515" cy="85.908" r="7.013"/>
			<circle fill="#404041" cx="242.389" cy="85.386" r="3.201"/>
		</g>
		<path fill="#404041" d="M164.533,85.616c0,0,4.668,0.348,6.195-2.622c1.534-2.971,0.41-5.926,0.41-5.926s4.095-0.624,5.693-3.296
			c1.601-2.67,1.569-6.636,1.569-6.636s3.134-0.021,5.104-2.734c1.967-2.713,0.792-5.769,0.792-5.769s2.523,0.985,4.63-0.568
			c2.106-1.552,2.11-5.034,2.11-5.034s1.471,3.038,3.863,4.009c2.989,1.212,5.146-1.343,5.146-1.343s0.61,2.978,2.81,4.151
			c2.201,1.174,5.639-0.894,5.639-0.894s-0.68,3.266,3.04,4.393c3.407,1.035,4.992-0.697,4.992-0.697s0.896,2.11,3.396,2.883
			c2.503,0.771,5.257-1.672,5.257-1.672s1.251,3.261,4.736,3.49c3.491,0.232,5.42-2.275,5.42-2.275s2.501,3.083,5.111,2.739
			c2.613-0.345,3.875-3.062,3.875-3.062s1.582,2.297,3.857,1.936c2.275-0.363,3.286-2.529,3.286-2.529s1.123,2.035,3.703,2.292
			c3.464,0.349,5.206-5.052,5.206-5.052s-3.458-13.888-7.317-15.737c-3.856-1.846-14.91-6.534-18.474-7.539
			c-3.563-1.004-12.071-2.373-13.738-2.931c-1.666-0.552-41.896-6.454-42.286-5.408c-0.394,1.045-15.07,10.257-15.866,12.7
			c-0.8,2.446-2.375,13.726-3.029,20.082C159.012,68.927,164.533,85.616,164.533,85.616z"/>
		<path fill="#FFFFFF" d="M202.49,113.067c3.884-3.406,7.229,0.592,13.2,1.594c5.967,1,8.484-1.536,11.304,1.302
			c3.222,3.288-1.945,11.675-14.074,9.952C202.306,124.407,198.604,116.472,202.49,113.067z"/>
		<path opacity="0.5" fill="#208AAF" d="M234.854,183.475c0,0-4.392,1.771-6.691,4.367c0.423-4.174,2.26-6.183,2.26-6.183
			L234.854,183.475z"/>
		<path fill="#6D6E70" d="M179.135,236.515c0,0,1.994-3.075,2.028-7.425c0.023-2.207-3.801-6.485-6.758-12.495
			c-4.062-8.244-9.244-15.004-17.452-15.845c-10.679-1.093-16.034,6.662-16.034,6.662S160.263,215.992,179.135,236.515z"/>
		<path fill="#404041" d="M140.919,207.412c2.513-3.453,11.312-3.739,17.486,3.472c9.578,11.185,22.354,22.095,20.729,25.631
			c-0.658,1.436-3.484,3.844-9.638,0.243c-6.153-3.594-4.629-3.991-8.572-6.72C156.989,227.318,134.446,216.297,140.919,207.412z"/>
		<path fill="#6D6E70" d="M272.874,221.059c0,0-2.241-2.338-3.972-6.332c-1.303-2.995,0.411-6.911,2.538-13.262
			c3.566-10.679,8.937-16.632,16.797-19.141c10.225-3.266,16.054,2.396,16.054,2.396S287.122,197.091,272.874,221.059z"/>
		<path fill="#404041" d="M304.291,184.72c-3.144-2.891-11.697,2.079-16.256,10.403c-7.07,12.916-16.72,21.966-15.161,25.936
			c0.578,1.471,3.926,2.546,9.212-2.239c5.283-4.788,3.979-4.364,7.276-7.841C292.656,207.506,310.315,190.255,304.291,184.72z"/>
		<path opacity="0.1" fill="#404041" d="M257.59,138.247c0,0,0.026,0.59,0.334,1.125c0.329-0.729,1.594-2.206,1.594-2.206
			l-1.24,0.919L257.59,138.247z"/>
		<path opacity="0.1" fill="#404041" d="M168.515,135.506c0,0-0.491,0.779-0.602,1.653c0.708-0.574,2.221-0.989,2.221-0.989
			l-1.002-0.22L168.515,135.506z"/>
		<path fill="#FFF100" d="M149.751,123.72c-0.898-1.312-2.132,0.18-3.05-1.134c-0.404-0.579,0.641-1.959-0.849-2.755
			c-0.915-0.487-2.754-0.968-3.843,0.27c-0.957,1.086,0.769,2.204,0.562,2.805c-0.204,0.602-1.239,0.268-1.822,0.545
			c-0.58,0.276-1.33,1.225-1.126,1.936c0.208,0.705,1.497,0.087,1.677,0.941c0.174-0.022,0.339-0.041,0.501-0.055
			c1.631-0.15,2.948,0.094,3.993,0.525c0.115-0.179,0.203-0.358,0.241-0.525c0.169-0.735-0.462-0.79-0.281-1.371
			c0.184-0.581,1.692-0.11,2.45,0.428C149.601,126.316,150.199,124.378,149.751,123.72z"/>
		<path fill="#E25A6B" d="M153.392,114.318c-0.752,0.97,0.225,1.587-1.675,1.908c-0.788,0.135-2.921-0.602-4.089,0.872
			c-1.152,1.455-0.41,2.998,1.102,3.423c1.508,0.426,2.504-1.975,3.919-2.255c0.04-0.009,0.069-0.003,0.111-0.009
			c0.607-0.802,1.565-1.624,2.372-2.417C155.637,114.452,154.069,113.44,153.392,114.318z"/>
		<path fill="#48C7E5" d="M285.657,120.861c-0.903-1.381,3.933-5.177,4.855-7.574c-0.414-0.23-1.028-0.417-1.64,0.009
			c-1.047,0.732-0.312,1.204-1.611,2.041c-1.301,0.835-2.985,1.171-3.345,2.905c-0.361,1.734-1.631,2.961-3.263,2.812
			c-1.635-0.148-3.812,0.619-3.027,1.833c0.786,1.216,1.751,3.12,3.99,2.569c2.239-0.551,2.836-0.768,3.338,0.117
			c0.499,0.886,1.733,0.974,2.025,0.779c0.162-0.109,0.592-0.396,0.69-0.844c-0.248-0.258-0.383-0.547-0.317-0.899
			c0.006-0.02,0.025-0.034,0.034-0.052c-0.11-0.138-0.25-0.285-0.431-0.438c-1.489-1.253,0.176-1.894,1.105-1.698
			c0.938,0.199,3.458-0.067,4.064-0.811c0.604-0.742,0.09-1.188,0.779-1.367c0.659-0.171,1.338-0.029,1.829-0.433
			C293.284,118.27,286.858,122.504,285.657,120.861z"/>
		<path fill="#48C7E5" d="M271.482,117.154c0.403-0.25,0.44-0.747,0.896-1.042c0.479-0.308,1.408-0.396,1.746-0.682
			c-1.13-0.997-2.292-1.807-3.269-0.818C270.098,115.381,270.604,116.248,271.482,117.154z"/>
		<path fill="#B29B8D" d="M171.503,86.756c0,0-8.241-9.073-14.751-3.158c-6.51,5.917-1.371,15.545,2.785,19.131
			c7.032,6.069,16.022,1.907,16.022,1.907L171.503,86.756z"/>
		<path fill="#E25A6B" d="M146.304,107.008c-1.195,0.078-1.343,1.373-1.179,2.989c0.248,0.05,0.498,0.16,0.649,0.401
			c0.363,0.587,1.141,1.676,1.531,1.782c0.326,0.09,0.661,0.109,0.977-0.669C147.807,109.253,147.314,106.942,146.304,107.008z"/>
		<path opacity="0.1" fill="#404041" d="M166.458,87.703c0,0-4.786-3.227-7.447,1.426c-2.704,4.722,1.957,9.506,1.957,9.506
			s-2.187-3.99-0.715-7.665C161.912,86.835,166.458,87.703,166.458,87.703z"/>
		<path opacity="0.1" fill="#404041" d="M198.474,115.69c0,0-0.907-2.521,0.455-4.268c1.298-1.667,3.731-0.996,3.731-0.996
			S198.299,110.302,198.474,115.69z"/>
		<path fill="#F4C9A2" d="M80.94,112.095c0,0,0.218-2.671-1.554-4.003c-1.689-1.267-3.862,0.016-3.862,0.016
			S79.7,106.846,80.94,112.095z"/>
		<polygon fill="#DFDFED" points="47.522,170.168 38.774,176.18 10.729,147.009 22.625,144.845 		"/>
		<polygon opacity="0.4" fill="#FFFFFF" points="15.534,152.006 43.073,165.643 22.625,144.845 10.729,147.009 		"/>
		<path fill="#FFEB73" d="M182.302,136.374c2.765-0.423,18.16,2.838,18.16,2.838l5.752-0.087c0,0,0.938,3.051,6.03,3.307
			c5.094,0.254,6.516-3.393,6.516-3.393l6.952,1.256c0,0,13.165-1.675,16.898-1.404c2.31,1.904,4.185,11.529,2.446,14.875
			c-5.137,1.966-13.279,2.469-13.279,2.469s-1.102,11.541,3.076,27.239c-7.055-1.51-24.697-2.495-42.326,0.541
			c-1.503-17.878,1.402-29.832,1.402-29.832s-8.761-0.538-13.989-3.525C183.295,151.42,185.962,137.837,182.302,136.374z"/>
	</g>
</g>
<g id="Layer_8" display="none">
	<path display="inline" fill="#E56F33" d="M-36.157,217.594c-53.524-1.491-60.248,49.184-51.35,74.423
		c32.572-11.926,87.944-18.439,95.647-0.163C14.515,280.472,26.803,217.909-36.157,217.594z"/>
	<path display="inline" fill="#F9E8F1" d="M-88.349,281.887c0.788,30.488,29.681,46.739,46.768,47.207
		c16.952,0.465,42.96-9.754,49.38-34.966c2.97-15.02-6.67-51.317-6.67-51.317s-23.377-13.3-34.672-14.337
		c-11.293-1.041-33.454,4.235-43.524,16.896C-87.139,258.032-87.224,277.543-88.349,281.887z"/>
	<path display="inline" fill="#E56F33" d="M-87.506,292.017c35.941-3.01,60.988-37.735,60.988-37.735s10.366,30.673,34.659,37.572
		c8.052-30.011-7.102-55.762-7.102-55.762l-20.559-14.056c0,0-29.68,1.234-44.005,7.071
		C-89.293,238.586-91.03,279.684-87.506,292.017z"/>
</g>
<g id="Layer_4" display="none">
	<rect x="-173.955" y="-26.205" display="inline" fill="#61C7FF" width="526" height="516"/>
</g>
<g id="Layer_7" display="none">
</g>
</svg>
