<?xml version="1.0" encoding="utf-8"?>
<!-- Generator: Adobe Illustrator 16.0.0, SVG Export Plug-In . SVG Version: 6.00 Build 0)  -->
<!DOCTYPE svg PUBLIC "-//W3C//DTD SVG 1.1//EN" "http://www.w3.org/Graphics/SVG/1.1/DTD/svg11.dtd">
<svg version="1.1" id="Layer_1" xmlns="http://www.w3.org/2000/svg" xmlns:xlink="http://www.w3.org/1999/xlink" x="0px" y="0px"
	 width="427.111px" height="451.957px" viewBox="0 0 427.111 451.957" enable-background="new 0 0 427.111 451.957"
	 xml:space="preserve">
<g>
	<path fill="#FFE252" d="M402.022,211.877c-5.7-32.578,11.403-88.773,17.918-134.382c6.716-47.012-43.762-54.98-55.164-14.259
		c-11.646,41.596-15.284,99.571-38.904,101.201c-19.942,1.376-22.645-92.52-28.097-128.478
		c-8.552-56.399-72.484-41.333-64.748,9.773c7.946,52.49,31.945,122.808,11.81,131.327c-21.175,8.959-62.007-80.59-92.846-124.404
		C121.153,8.84,69.414,45.602,93.962,89.304c24.55,43.703,98.953,122.775,79.407,139.823
		c-21.522,18.771-85.934-43.993-122.368-65.302c-36.435-21.31-70.488,31.66-37.871,54.974c32.617,23.318,93.587,57.095,136.009,90.2
		c25.029,19.531,20.058,39.861,0.407,46.22c-20.768,6.718-47.666,1.248-84.701-6.518c-37.871-7.939-51.641,48.361-16.674,60.95
		c19.068,6.865,85.575,14.564,132.73,23.548c34.207,6.517,113.725,40.578,187.32-3.257
		C470.434,369.062,410.315,259.269,402.022,211.877z"/>
	<path fill="#4169E1" d="M163.841,344.547c-2.695,4.771-7.652,8.521-14.294,10.671c-20.768,6.718-47.666,1.248-84.701-6.518
		c-37.871-7.939-51.641,48.361-16.674,60.95c19.068,6.865,85.575,14.564,132.73,23.548c17.714,3.374,47.581,14.134,82.482,17.64
		C241.454,406.311,206.661,369.258,163.841,344.547z"/>
	<path opacity="0.2" fill="#FFFFFF" d="M414.995,258.707C307.211,263.015,217,335.59,186.437,434.387
		c36.702,8.575,111.91,37.174,181.786-4.445C444.256,384.655,430.461,312.307,414.995,258.707z"/>
	<path fill="#5FC98E" d="M419.94,77.495c6.716-47.012-44.591-50.087-55.993-9.365c-11.646,41.596-14.455,94.677-38.075,96.307
		c-19.942,1.376-22.645-92.52-28.097-128.478c-8.552-56.399-72.484-41.333-64.748,9.773c7.946,52.49,31.945,122.808,11.81,131.327
		c-20.36,8.614-58.894-73.837-89.241-119.145c-10.434,27.523-16.163,57.361-16.163,88.54c0,2.671,0.056,5.329,0.139,7.98
		c24.264,33.145,45.301,64.66,33.798,74.693c-4.644,4.05-11.288,4.299-19.213,1.991c34.686,96.306,126.848,165.164,235.103,165.164
		c5.962,0,11.869-0.224,17.726-0.635c44.697-61.711,1.937-144.339-4.963-183.771C396.322,179.299,413.425,123.104,419.94,77.495z"/>
	<path opacity="0.2" fill="#FFFFFF" d="M419.94,77.495c6.716-47.012-44.591-50.087-55.993-9.365
		c-11.646,41.596-14.455,94.677-38.075,96.307c-19.942,1.376-22.645-92.52-28.097-128.478c-8.552-56.399-72.484-41.333-64.748,9.773
		c7.946,52.49,31.945,122.808,11.81,131.327c-16.755,7.089-45.818-47.492-72.497-92.294
		C174.359,221,285.403,330.818,422.119,330.818c1.661,0,3.314-0.031,4.967-0.063c0.497-46.161-20.417-92.317-25.063-118.877
		C396.322,179.299,413.425,123.104,419.94,77.495z"/>
	<path fill="#CC9DF9" d="M402.022,211.877c-1.468-8.397-1.415-18.37-0.427-29.318c-43.27,44.92-69.886,105.992-69.886,173.288
		c0,29.779,5.22,58.335,14.778,84.817c7.27-2.896,14.53-6.431,21.735-10.723C470.434,369.062,410.315,259.269,402.022,211.877z"/>
	<path fill="#F95860" d="M419.94,77.495c6.716-47.012-43.762-54.98-55.164-14.259c-11.646,41.596-15.284,99.571-38.904,101.201
		c-19.942,1.376-22.645-92.52-28.097-128.478c-8.552-56.399-72.484-41.333-64.748,9.773C240.35,94.1,261.3,157.603,248.792,173.946
		c36.43,63.771,100.151,109.926,175.254,122.584c-0.015-0.082-0.021-0.162-0.032-0.243c-5.907-33.641-18.513-64.521-21.992-84.41
		C396.322,179.299,413.425,123.104,419.94,77.495z"/>
	<path fill="#4169E1" d="M13.13,218.799c14.69,10.503,35.139,23.131,57.049,36.86c2.606-11.246,3.985-22.963,3.985-35.003
		c0-16.104-2.468-31.633-7.043-46.228c-5.766-4.087-11.2-7.726-16.12-10.603C14.566,142.515-19.487,195.485,13.13,218.799z"/>
	<path opacity="0.2" fill="#FFFFFF" d="M69.76,349.728c-1.62-0.337-3.254-0.679-4.914-1.027
		c-37.871-7.939-51.641,48.361-16.674,60.95c13.986,5.034,53.491,10.52,92.164,16.63C111.788,406.03,87.689,379.925,69.76,349.728z"
		/>
	<path opacity="0.2" fill="#FFFFFF" d="M34.887,222.375c0-21.469,2.712-42.304,7.803-62.185
		c-32.953-9.722-59.676,37.081-29.56,58.608c6.373,4.556,13.832,9.513,22.02,14.785C34.986,229.866,34.887,226.132,34.887,222.375z"
		/>
	<path opacity="0.2" fill="#FFFFFF" d="M242.419,93.48c17.541-6.922,36.654-10.727,56.655-10.727c1.237,0,2.47,0.018,3.698,0.047
		c-1.815-18.184-3.269-35.431-4.998-46.841c-8.552-56.399-72.484-41.333-64.748,9.773C235.308,60.807,238.916,77.351,242.419,93.48z
		"/>
	<path opacity="0.2" fill="#FFFFFF" d="M422.119,330.818c1.661,0,3.314-0.031,4.967-0.063c0.397-36.9-12.88-73.786-20.601-100.673
		c-0.067-0.237-0.137-0.476-0.205-0.711c-0.172-0.605-0.339-1.202-0.506-1.797c-0.113-0.402-0.227-0.808-0.336-1.204
		c-0.142-0.516-0.28-1.025-0.416-1.532c-0.126-0.459-0.248-0.917-0.367-1.369c-0.121-0.459-0.24-0.917-0.358-1.37
		c-0.125-0.485-0.245-0.968-0.364-1.445c-0.104-0.415-0.209-0.833-0.308-1.241c-0.123-0.508-0.238-1.007-0.354-1.506
		c-0.085-0.366-0.173-0.737-0.253-1.097c-0.125-0.558-0.239-1.101-0.353-1.644c-0.062-0.29-0.127-0.586-0.184-0.871
		c-0.166-0.823-0.32-1.631-0.459-2.419c-0.181-1.039-0.339-2.102-0.475-3.187c-0.03-0.236-0.049-0.483-0.076-0.722
		c-0.101-0.861-0.194-1.728-0.269-2.616c-0.02-0.244-0.029-0.498-0.047-0.744c-0.068-0.901-0.13-1.811-0.171-2.741
		c-0.009-0.21-0.012-0.427-0.019-0.637c-0.037-0.984-0.066-1.976-0.077-2.987c-0.001-0.161,0.001-0.327,0.001-0.488
		c-0.007-1.075-0.003-2.163,0.018-3.268c0.003-0.107,0.007-0.216,0.01-0.323c0.025-1.17,0.064-2.355,0.119-3.557
		c0.002-0.05,0.006-0.103,0.009-0.153c0.06-1.259,0.134-2.536,0.225-3.83c0-0.012,0.001-0.023,0.002-0.035
		c0.092-1.328,0.2-2.672,0.323-4.031c-34.367,35.679-58.213,81.554-66.575,132.638C362.14,325.289,391.481,330.818,422.119,330.818z
		"/>
	<g>
		<g>
			<path fill="#404041" d="M368.767,271.875c-0.198,10.921-9.204,19.615-20.126,19.418c-10.915-0.191-19.613-9.203-19.424-20.119
				c0.2-10.924,9.211-19.618,20.127-19.422C360.264,251.945,368.958,260.955,368.767,271.875z"/>
			<path fill="#404041" d="M258.991,344.043c-0.198,10.919-9.207,19.615-20.128,19.421c-10.921-0.198-19.615-9.207-19.418-20.128
				c0.194-10.917,9.205-19.612,20.125-19.42C250.491,324.112,259.185,333.124,258.991,344.043z"/>
		</g>
		<path fill="#404041" d="M353.032,397.888c-26.743,17.582-48.665,12.438-54.274,11.19c-5.292-1.177-9.64-5.653-9.583-11.241
			c0.056-5.571,4.173-9.994,9.634-9.694c3.603,0.197,20.974,4.992,42.008-8.835c21.085-13.863,23.465-29.871,24.772-35.021
			c1.299-5.096,8.182-7.8,13.333-5.635c5.154,2.165,6.851,7.807,6.183,13.298C384.454,357.279,379.773,380.307,353.032,397.888z"/>
	</g>
	<path opacity="0.2" fill="#FFFFFF" d="M364.776,63.236c-2.588,9.243-4.78,19.296-6.885,29.36c-0.008,0.589-0.064,1.156-0.179,1.694
		c19.931,8.189,37.769,20.424,52.492,35.688c0-0.003,0.001-0.006,0.002-0.01c3.572-17.793,7.357-35.837,9.733-52.473
		C426.656,30.483,376.178,22.515,364.776,63.236z"/>
</g>
</svg>
